<!-- 菜单图标：数据采集 -->
<svg xmlns="http://www.w3.org/2000/svg" width="18" height="18" viewBox="0 0 18 18">
  <g id="组_2" data-name="组 2" transform="translate(-36 -94)">
    <rect id="矩形_17" data-name="矩形 17" width="18" height="18" transform="translate(36 94)" fill="none"/>
    <path id="路径_8078" data-name="路径 8078" d="M128.28,128.56a.72.72,0,0,1,0,1.44H111.72a.72.72,0,0,1,0-1.44ZM115.545,112a.72.72,0,0,1,.72.72v14.22a.72.72,0,0,1-.72.72h-3.06a.72.72,0,0,1-.72-.72V112.72a.72.72,0,0,1,.72-.72Zm5.94,7.56a.72.72,0,0,1,.72.72v6.66a.72.72,0,0,1-.72.72h-3.06a.72.72,0,0,1-.72-.72v-6.66a.72.72,0,0,1,.72-.72Zm5.94-4.32a.72.72,0,0,1,.72.72v10.98a.72.72,0,0,1-.72.72h-3.06a.72.72,0,0,1-.72-.72V115.96a.72.72,0,0,1,.72-.72Zm-12.6-1.8H113.2v12.78h1.62Zm5.94,7.56h-1.62v5.22h1.62Zm5.94-4.32h-1.62v9.54h1.62Z" transform="translate(-75 -18)" fill="#fff"/>
  </g>
</svg>
