<!-- 菜单图标：排障 -->
<svg xmlns="http://www.w3.org/2000/svg" width="18" height="18" viewBox="0 0 18 18">
  <g id="组_2" data-name="组 2" transform="translate(-36 -94)">
    <rect id="矩形_17" data-name="矩形 17" width="18" height="18" transform="translate(36 94)" fill="none"/>
    <g id="组_622" data-name="组 622" transform="translate(-83.786 -112.658)">
      <path id="路径_8100" data-name="路径 8100" d="M282.186,368.992H270.053a.948.948,0,0,1-.933-.96v-10.08a.948.948,0,0,1,.933-.96h12.133a.948.948,0,0,1,.933.96v10.08A.948.948,0,0,1,282.186,368.992Zm-12.133-11.04v10.08h12.133v-10.08Z" transform="translate(-145.333 -145.334)" fill="#fff"/>
      <path id="路径_8102" data-name="路径 8102" d="M122.683,219.658h-1.764a1.171,1.171,0,0,1-1.132-1.2v-9.59a1.165,1.165,0,0,1,1.116-1.206h11.749a1.184,1.184,0,0,1,1.134,1.226v1.9h-.966v-1.9a.178.178,0,0,0-.169-.183H120.9a.158.158,0,0,0-.151.163v9.589a.166.166,0,0,0,.167.161h1.764v1.043Z" transform="translate(0 0)" fill="#fff"/>
      <path id="联合_3" data-name="联合 3" d="M-1905.148-1761.5l-.905-.9a.546.546,0,0,1-.158-.436,2.488,2.488,0,0,1-1.5.5,2.5,2.5,0,0,1-2.5-2.5,2.5,2.5,0,0,1,2.5-2.5,2.5,2.5,0,0,1,2.5,2.5,2.486,2.486,0,0,1-.5,1.5.546.546,0,0,1,.435.158l.905.9a.549.549,0,0,1,.119.6.546.546,0,0,1-.506.338h0A.541.541,0,0,1-1905.148-1761.5Zm-4.3-3.339a1.733,1.733,0,0,0,1.731,1.731,1.731,1.731,0,0,0,1.731-1.731,1.731,1.731,0,0,0-1.731-1.731A1.733,1.733,0,0,0-1909.445-1764.842Z" transform="translate(2038 1982)" fill="#fff"/>
    </g>
  </g>
</svg>
