<!-- 设备类型：防火墙 -->
<svg xmlns="http://www.w3.org/2000/svg" width="32" height="32" viewBox="0 0 32 32">
  <path id="路径_8483" data-name="路径 8483" d="M160,162.909A2.909,2.909,0,0,1,162.909,160h26.182A2.909,2.909,0,0,1,192,162.909v26.182A2.909,2.909,0,0,1,189.091,192H162.909A2.909,2.909,0,0,1,160,189.091Zm11.636,21.818h-8.727v4.364h8.727Zm17.455,0H174.545v4.364h14.545Zm0-7.273h-8.727v4.364h8.727Zm-11.636,0H162.909v4.364h14.545Zm11.636-7.273H174.545v4.364h14.545Zm-26.182,4.364h8.727v-4.364h-8.727Zm14.545-11.636H162.909v4.364h14.545Zm11.636,0h-8.727v4.364h8.727Z" transform="translate(-160 -160)" fill="#303133"/>
</svg>
