<!-- 菜单图标：机房管理 -->
<svg xmlns="http://www.w3.org/2000/svg" width="18" height="18" viewBox="0 0 18 18">
  <g id="组_2" data-name="组 2" transform="translate(-36 -94)">
    <rect id="矩形_17" data-name="矩形 17" width="18" height="18" transform="translate(36 94)" fill="none"/>
    <path id="路径_8055" data-name="路径 8055" d="M150.886,140.761h-4.5v15.75h4.5Zm1.125,0v15.75h3.938a.563.563,0,0,0,.562-.562V141.324a.563.563,0,0,0-.563-.563Zm-6.75,0h-3.937a.563.563,0,0,0-.562.562v14.625a.563.563,0,0,0,.563.563h3.937Zm11.25-1.125a1.125,1.125,0,0,1,1.125,1.125v15.75a1.125,1.125,0,0,1-1.125,1.125h-15.75a1.125,1.125,0,0,1-1.125-1.125v-15.75a1.125,1.125,0,0,1,1.125-1.125Zm-13.5,3.938a.563.563,0,1,1,.563-.563.563.563,0,0,1-.563.563Zm0,1.687a.563.563,0,1,1,.563-.563A.563.563,0,0,1,143.011,145.261Zm0,1.687a.563.563,0,1,1,.563-.562A.562.562,0,0,1,143.011,146.948Zm-.562,2.25h1.125a.563.563,0,0,1,0,1.125h-1.125a.563.563,0,0,1,0-1.125Zm0,4.5h1.125a.563.563,0,0,1,0,1.125h-1.125a.563.563,0,0,1,0-1.125Zm0-2.25h1.125a.563.563,0,0,1,0,1.125h-1.125a.563.563,0,0,1,0-1.125Zm5.625-2.25H149.2a.563.563,0,0,1,0,1.125h-1.125a.563.563,0,1,1,0-1.125Zm0,4.5H149.2a.563.563,0,0,1,0,1.125h-1.125a.563.563,0,1,1,0-1.125Zm0-2.25H149.2a.563.563,0,0,1,0,1.125h-1.125a.563.563,0,1,1,0-1.125Zm5.625-2.25h1.125a.563.563,0,1,1,0,1.125H153.7a.563.563,0,0,1,0-1.125Zm0,4.5h1.125a.563.563,0,1,1,0,1.125H153.7a.563.563,0,0,1,0-1.125Zm0-2.25h1.125a.563.563,0,1,1,0,1.125H153.7a.563.563,0,0,1,0-1.125Zm-5.062-7.875a.563.563,0,1,1,.563-.562A.562.562,0,0,1,148.636,143.573Zm0,1.688a.563.563,0,1,1,.563-.563A.563.563,0,0,1,148.636,145.261Zm0,1.687a.563.563,0,1,1,.563-.562A.562.562,0,0,1,148.636,146.948Zm5.625-3.375a.563.563,0,1,1,.563-.562A.563.563,0,0,1,154.261,143.573Zm0,1.688a.563.563,0,1,1,.563-.563A.563.563,0,0,1,154.261,145.261Zm0,1.687a.563.563,0,1,1,.563-.562A.563.563,0,0,1,154.261,146.948Z" transform="translate(-103.636 -45.636)" fill="#fff"/>
  </g>
</svg>
