<!-- 返回图标 -->
<svg xmlns="http://www.w3.org/2000/svg" width="16" height="14" viewBox="0 0 16 14">
  <path id="路径_8516" data-name="路径 8516" d="M78.785,211.71H66.067l5-5.017a.627.627,0,0,0,0-.885l-.148-.149a.621.621,0,0,0-.882,0l-6.106,6.127a.735.735,0,0,0-.4.547.643.643,0,0,0,.091.48.741.741,0,0,0,.214.231l.011.011a.609.609,0,0,0,.2.135l6.078,6.1a.621.621,0,0,0,.882,0l.148-.149a.627.627,0,0,0,0-.885l-5.06-5.086H78.785a.731.731,0,0,0,0-1.462Z" transform="translate(-63.515 -205.475)" fill="#606266"/>
</svg>
