<!-- 菜单图标：IP地址 -->
<svg xmlns="http://www.w3.org/2000/svg" width="18" height="18" viewBox="0 0 18 18">
  <g id="组_2" data-name="组 2" transform="translate(-36 -94)">
    <rect id="矩形_17" data-name="矩形 17" width="18" height="18" transform="translate(36 94)" fill="none"/>
    <g id="组_617" data-name="组 617" transform="translate(-91 -34.542)">
      <path id="路径_8064" data-name="路径 8064" d="M376.967,345.238H378.3V351.3h-1.332Zm3.835,3.886h1.4a2.524,2.524,0,0,0,.967-.165,1.809,1.809,0,0,0,.649-.437,1.673,1.673,0,0,0,.365-.624,2.314,2.314,0,0,0,0-1.438,1.681,1.681,0,0,0-.365-.619,1.811,1.811,0,0,0-.649-.437,2.524,2.524,0,0,0-.967-.165H379.47V351.3H380.8Zm0-2.851h1.035a2.8,2.8,0,0,1,.441.034,1.03,1.03,0,0,1,.373.132.718.718,0,0,1,.259.276,1.164,1.164,0,0,1,0,.933.717.717,0,0,1-.259.276,1.026,1.026,0,0,1-.373.132,2.784,2.784,0,0,1-.441.034H380.8Z" transform="translate(-243.967 -212.696)" fill="#fff"/>
      <path id="路径_8065" data-name="路径 8065" d="M144.251,128.542h-16.5a.75.75,0,0,0-.749.75v13.041a.75.75,0,0,0,.749.75h7.514v2.708a.749.749,0,1,0,1.5,0v-2.708h7.49a.75.75,0,0,0,.749-.75V129.292A.75.75,0,0,0,144.251,128.542Zm-.749,13.041h-15V130.042h15Z" fill="#fff"/>
    </g>
  </g>
</svg>
