<svg xmlns="http://www.w3.org/2000/svg" xmlns:xlink="http://www.w3.org/1999/xlink" width="685" height="575" viewBox="0 0 685 575">
  <defs>
    <clipPath id="clip-path">
      <rect id="矩形_1166" data-name="矩形 1166" width="613.468" height="570.409" fill="none"/>
    </clipPath>
    <clipPath id="clip-path-2">
      <rect id="矩形_1167" data-name="矩形 1167" width="165.245" height="119.919" fill="none"/>
    </clipPath>
    <clipPath id="clip-path-3">
      <rect id="矩形_1171" data-name="矩形 1171" width="323.765" height="246.395" fill="none"/>
    </clipPath>
    <clipPath id="clip-path-4">
      <rect id="矩形_1172" data-name="矩形 1172" width="103.671" height="129.284" fill="none"/>
    </clipPath>
  </defs>
  <g id="组_1421" data-name="组 1421" transform="translate(-95.849 -133.414)">
    <path id="路径_8208" data-name="路径 8208" d="M617.075,853.838H244.507a28.874,28.874,0,1,1,0-57.748H617.075a28.874,28.874,0,1,1,0,57.748Z" transform="translate(-26.607 -146.979)" fill="#cbe4fe"/>
    <g id="组_1396" data-name="组 1396" transform="translate(295.067 606.432)">
      <path id="路径_8209" data-name="路径 8209" d="M667.174,773.474a4.515,4.515,0,1,1,0-9.03h.226a4.419,4.419,0,0,1,4.4,4.515,4.613,4.613,0,0,1-4.628,4.516Z" transform="translate(-421.133 -746.382)" fill="#b6d4ff"/>
      <path id="路径_8210" data-name="路径 8210" d="M357.294,773.474a4.515,4.515,0,1,1,0-9.03h.452a4.515,4.515,0,1,1,0,9.03Z" transform="translate(-352.3 -746.382)" fill="#b6d4ff"/>
      <path id="路径_8211" data-name="路径 8211" d="M381.135,773.474a4.515,4.515,0,1,1,0-9.03h.45a4.515,4.515,0,1,1,0,9.03Z" transform="translate(-357.595 -746.382)" fill="#b6d4ff"/>
      <path id="路径_8212" data-name="路径 8212" d="M404.969,773.474a4.515,4.515,0,1,1,0-9.03h.451a4.515,4.515,0,1,1,0,9.03Z" transform="translate(-362.89 -746.382)" fill="#b6d4ff"/>
      <path id="路径_8213" data-name="路径 8213" d="M428.8,773.474a4.515,4.515,0,1,1,0-9.03h.452a4.515,4.515,0,1,1,0,9.03Z" transform="translate(-368.184 -746.382)" fill="#b6d4ff"/>
      <path id="路径_8214" data-name="路径 8214" d="M452.644,773.474a4.515,4.515,0,0,1,0-9.03h.451a4.515,4.515,0,1,1,0,9.03Z" transform="translate(-373.48 -746.382)" fill="#b6d4ff"/>
      <path id="路径_8215" data-name="路径 8215" d="M476.479,773.474a4.515,4.515,0,1,1,0-9.03h.452a4.515,4.515,0,1,1,0,9.03Z" transform="translate(-378.774 -746.382)" fill="#b6d4ff"/>
      <path id="路径_8216" data-name="路径 8216" d="M500.32,773.474a4.515,4.515,0,1,1,0-9.03h.45a4.515,4.515,0,1,1,0,9.03Z" transform="translate(-384.07 -746.382)" fill="#b6d4ff"/>
      <path id="路径_8217" data-name="路径 8217" d="M524.154,773.474a4.515,4.515,0,1,1,0-9.03h.453a4.515,4.515,0,0,1,0,9.03Z" transform="translate(-389.364 -746.382)" fill="#b6d4ff"/>
      <path id="路径_8218" data-name="路径 8218" d="M547.995,773.474a4.515,4.515,0,1,1,0-9.03h.451a4.515,4.515,0,1,1,0,9.03Z" transform="translate(-394.66 -746.382)" fill="#b6d4ff"/>
      <path id="路径_8219" data-name="路径 8219" d="M571.83,773.474a4.515,4.515,0,1,1,0-9.03h.45a4.515,4.515,0,1,1,0,9.03h-.45Z" transform="translate(-399.954 -746.382)" fill="#b6d4ff"/>
      <path id="路径_8220" data-name="路径 8220" d="M595.664,773.474a4.515,4.515,0,0,1,0-9.03h.452a4.515,4.515,0,1,1,0,9.03Z" transform="translate(-405.248 -746.382)" fill="#b6d4ff"/>
      <path id="路径_8221" data-name="路径 8221" d="M619.5,773.474a4.515,4.515,0,0,1,0-9.03h.453a4.515,4.515,0,1,1,0,9.03Z" transform="translate(-410.543 -746.382)" fill="#b6d4ff"/>
      <path id="路径_8222" data-name="路径 8222" d="M643.339,773.474a4.515,4.515,0,1,1,0-9.03h.453a4.515,4.515,0,0,1,0,9.03Z" transform="translate(-415.838 -746.382)" fill="#b6d4ff"/>
      <path id="路径_8223" data-name="路径 8223" d="M356.679,750.255a4.516,4.516,0,0,1,0-9.031h.451a4.516,4.516,0,0,1,0,9.031Z" transform="translate(-352.163 -741.224)" fill="#b6d4ff"/>
      <path id="路径_8224" data-name="路径 8224" d="M380.513,750.255a4.516,4.516,0,1,1,0-9.031h.452a4.516,4.516,0,1,1,0,9.031Z" transform="translate(-357.457 -741.224)" fill="#b6d4ff"/>
      <path id="路径_8225" data-name="路径 8225" d="M404.354,750.255a4.516,4.516,0,0,1,0-9.031h.451a4.516,4.516,0,1,1,0,9.031Z" transform="translate(-362.753 -741.224)" fill="#b6d4ff"/>
      <path id="路径_8226" data-name="路径 8226" d="M428.188,750.255a4.516,4.516,0,0,1,0-9.031h.451a4.516,4.516,0,1,1,0,9.031Z" transform="translate(-368.047 -741.224)" fill="#b6d4ff"/>
      <path id="路径_8227" data-name="路径 8227" d="M452.023,750.255a4.516,4.516,0,1,1,0-9.031h.452a4.516,4.516,0,1,1,0,9.031Z" transform="translate(-373.342 -741.224)" fill="#b6d4ff"/>
      <path id="路径_8228" data-name="路径 8228" d="M475.864,750.255a4.516,4.516,0,1,1,0-9.031h.451a4.516,4.516,0,1,1,0,9.031Z" transform="translate(-378.637 -741.224)" fill="#b6d4ff"/>
      <path id="路径_8229" data-name="路径 8229" d="M499.7,750.255a4.516,4.516,0,0,1,0-9.031h.453a4.516,4.516,0,1,1,0,9.031Z" transform="translate(-383.932 -741.224)" fill="#b6d4ff"/>
      <path id="路径_8230" data-name="路径 8230" d="M523.539,750.255a4.516,4.516,0,0,1,0-9.031h.451a4.516,4.516,0,0,1,0,9.031Z" transform="translate(-389.227 -741.224)" fill="#b6d4ff"/>
      <path id="路径_8231" data-name="路径 8231" d="M547.374,750.255a4.516,4.516,0,0,1,0-9.031h.45a4.516,4.516,0,0,1,0,9.031Z" transform="translate(-394.522 -741.224)" fill="#b6d4ff"/>
      <path id="路径_8232" data-name="路径 8232" d="M571.214,750.255a4.516,4.516,0,0,1,0-9.031h.451a4.516,4.516,0,0,1,0,9.031Z" transform="translate(-399.817 -741.224)" fill="#b6d4ff"/>
      <path id="路径_8233" data-name="路径 8233" d="M595.048,750.255a4.516,4.516,0,1,1,0-9.031h.451a4.516,4.516,0,1,1,0,9.031h-.451Z" transform="translate(-405.112 -741.224)" fill="#b6d4ff"/>
      <path id="路径_8234" data-name="路径 8234" d="M618.883,750.255a4.516,4.516,0,0,1,0-9.031h.453a4.516,4.516,0,0,1,0,9.031Z" transform="translate(-410.406 -741.224)" fill="#b6d4ff"/>
      <path id="路径_8235" data-name="路径 8235" d="M642.718,750.255a4.516,4.516,0,0,1,0-9.031h.452a4.516,4.516,0,0,1,0,9.031Z" transform="translate(-415.7 -741.224)" fill="#b6d4ff"/>
      <path id="路径_8236" data-name="路径 8236" d="M666.559,750.255a4.516,4.516,0,1,1,0-9.031h.452a4.516,4.516,0,0,1,0,9.031Z" transform="translate(-420.996 -741.224)" fill="#b6d4ff"/>
    </g>
    <g id="组_1397" data-name="组 1397" transform="translate(294.29 588.502)">
      <path id="路径_8237" data-name="路径 8237" d="M355.678,727.26a4.516,4.516,0,1,1,0-9.031h.451a4.516,4.516,0,0,1,0,9.031Z" transform="translate(-351.163 -718.229)" fill="#b6d4ff"/>
      <path id="路径_8238" data-name="路径 8238" d="M379.513,727.26a4.516,4.516,0,1,1,0-9.031h.452a4.516,4.516,0,1,1,0,9.031Z" transform="translate(-356.457 -718.229)" fill="#b6d4ff"/>
      <path id="路径_8239" data-name="路径 8239" d="M403.354,727.26a4.516,4.516,0,0,1,0-9.031h.451a4.516,4.516,0,1,1,0,9.031Z" transform="translate(-361.753 -718.229)" fill="#b6d4ff"/>
      <path id="路径_8240" data-name="路径 8240" d="M427.188,727.26a4.516,4.516,0,0,1,0-9.031h.451a4.516,4.516,0,1,1,0,9.031Z" transform="translate(-367.047 -718.229)" fill="#b6d4ff"/>
      <path id="路径_8241" data-name="路径 8241" d="M451.023,727.26a4.516,4.516,0,1,1,0-9.031h.452a4.516,4.516,0,0,1,0,9.031Z" transform="translate(-372.342 -718.229)" fill="#b6d4ff"/>
      <path id="路径_8242" data-name="路径 8242" d="M474.864,727.26a4.516,4.516,0,1,1,0-9.031h.451a4.516,4.516,0,1,1,0,9.031Z" transform="translate(-377.637 -718.229)" fill="#b6d4ff"/>
      <path id="路径_8243" data-name="路径 8243" d="M498.7,727.26a4.516,4.516,0,0,1,0-9.031h.453a4.516,4.516,0,1,1,0,9.031Z" transform="translate(-382.932 -718.229)" fill="#b6d4ff"/>
      <path id="路径_8244" data-name="路径 8244" d="M522.539,727.26a4.516,4.516,0,0,1,0-9.031h.451a4.516,4.516,0,0,1,0,9.031Z" transform="translate(-388.227 -718.229)" fill="#b6d4ff"/>
      <path id="路径_8245" data-name="路径 8245" d="M546.374,727.26a4.516,4.516,0,0,1,0-9.031h.45a4.516,4.516,0,0,1,0,9.031Z" transform="translate(-393.522 -718.229)" fill="#b6d4ff"/>
      <path id="路径_8246" data-name="路径 8246" d="M570.214,727.26a4.516,4.516,0,0,1,0-9.031h.451a4.516,4.516,0,1,1,0,9.031Z" transform="translate(-398.817 -718.229)" fill="#b6d4ff"/>
      <path id="路径_8247" data-name="路径 8247" d="M594.049,727.26a4.516,4.516,0,1,1,0-9.031h.451a4.516,4.516,0,1,1,0,9.031h-.451Z" transform="translate(-404.112 -718.229)" fill="#b6d4ff"/>
      <path id="路径_8248" data-name="路径 8248" d="M617.883,727.26a4.516,4.516,0,0,1,0-9.031h.453a4.516,4.516,0,0,1,0,9.031Z" transform="translate(-409.406 -718.229)" fill="#b6d4ff"/>
      <path id="路径_8249" data-name="路径 8249" d="M641.718,727.26a4.516,4.516,0,0,1,0-9.031h.452a4.516,4.516,0,1,1,0,9.031Z" transform="translate(-414.7 -718.229)" fill="#b6d4ff"/>
      <path id="路径_8250" data-name="路径 8250" d="M665.558,727.26a4.516,4.516,0,0,1,0-9.031h.452a4.516,4.516,0,0,1,0,9.031Z" transform="translate(-419.996 -718.229)" fill="#b6d4ff"/>
    </g>
    <g id="组_1398" data-name="组 1398" transform="translate(554.634 606.432)">
      <path id="路径_8251" data-name="路径 8251" d="M691.11,773.474a4.515,4.515,0,1,1,0-9.03h.453a4.515,4.515,0,0,1,0,9.03Z" transform="translate(-686.116 -746.382)" fill="#b6d4ff"/>
      <path id="路径_8252" data-name="路径 8252" d="M714.951,773.474a4.515,4.515,0,0,1,0-9.03h.451a4.515,4.515,0,1,1,0,9.03Z" transform="translate(-691.412 -746.382)" fill="#b6d4ff"/>
      <path id="路径_8253" data-name="路径 8253" d="M738.786,773.474a4.515,4.515,0,1,1,0-9.03h.45a4.515,4.515,0,1,1,0,9.03Z" transform="translate(-696.707 -746.382)" fill="#b6d4ff"/>
      <path id="路径_8254" data-name="路径 8254" d="M762.62,773.474a4.515,4.515,0,1,1,0-9.03h.452a4.515,4.515,0,1,1,0,9.03Z" transform="translate(-702.001 -746.382)" fill="#b6d4ff"/>
      <path id="路径_8255" data-name="路径 8255" d="M690.495,750.255a4.516,4.516,0,0,1,0-9.031h.451a4.516,4.516,0,1,1,0,9.031Z" transform="translate(-685.98 -741.224)" fill="#b6d4ff"/>
      <path id="路径_8256" data-name="路径 8256" d="M714.33,750.255a4.516,4.516,0,1,1,0-9.031h.452a4.516,4.516,0,1,1,0,9.031Z" transform="translate(-691.274 -741.224)" fill="#b6d4ff"/>
      <path id="路径_8257" data-name="路径 8257" d="M738.171,750.255a4.516,4.516,0,0,1,0-9.031h.451a4.516,4.516,0,0,1,0,9.031Z" transform="translate(-696.57 -741.224)" fill="#b6d4ff"/>
      <path id="路径_8258" data-name="路径 8258" d="M762,750.255a4.516,4.516,0,0,1,0-9.031h.451a4.516,4.516,0,1,1,0,9.031Z" transform="translate(-701.864 -741.224)" fill="#b6d4ff"/>
    </g>
    <g id="组_1399" data-name="组 1399" transform="translate(553.857 588.327)">
      <path id="路径_8259" data-name="路径 8259" d="M689.495,727.035a4.516,4.516,0,0,1,0-9.031h.451a4.516,4.516,0,0,1,0,9.031Z" transform="translate(-684.98 -718.004)" fill="#b6d4ff"/>
      <path id="路径_8260" data-name="路径 8260" d="M713.33,727.035a4.516,4.516,0,1,1,0-9.031h.452a4.516,4.516,0,1,1,0,9.031Z" transform="translate(-690.274 -718.004)" fill="#b6d4ff"/>
      <path id="路径_8261" data-name="路径 8261" d="M737.171,727.035a4.516,4.516,0,0,1,0-9.031h.451a4.516,4.516,0,0,1,0,9.031Z" transform="translate(-695.57 -718.004)" fill="#b6d4ff"/>
      <path id="路径_8262" data-name="路径 8262" d="M761,727.035A4.516,4.516,0,1,1,761,718h.451a4.516,4.516,0,1,1,0,9.031Z" transform="translate(-700.864 -718.004)" fill="#b6d4ff"/>
    </g>
    <g id="组_1400" data-name="组 1400" transform="translate(554.634 641.663)">
      <path id="路径_8263" data-name="路径 8263" d="M691.11,818.766a4.516,4.516,0,1,1,0-9.031h.453a4.516,4.516,0,0,1,0,9.031Z" transform="translate(-686.116 -791.673)" fill="#b6d4ff"/>
      <path id="路径_8264" data-name="路径 8264" d="M714.951,818.766a4.516,4.516,0,0,1,0-9.031h.451a4.516,4.516,0,0,1,0,9.031Z" transform="translate(-691.412 -791.673)" fill="#b6d4ff"/>
      <path id="路径_8265" data-name="路径 8265" d="M738.786,818.766a4.516,4.516,0,0,1,0-9.031h.45a4.516,4.516,0,1,1,0,9.031Z" transform="translate(-696.707 -791.673)" fill="#b6d4ff"/>
      <path id="路径_8266" data-name="路径 8266" d="M762.62,818.766a4.516,4.516,0,1,1,0-9.031h.452a4.516,4.516,0,1,1,0,9.031Z" transform="translate(-702.001 -791.673)" fill="#b6d4ff"/>
      <path id="路径_8267" data-name="路径 8267" d="M690.495,795.546a4.516,4.516,0,0,1,0-9.031h.451a4.516,4.516,0,1,1,0,9.031Z" transform="translate(-685.98 -786.515)" fill="#b6d4ff"/>
      <path id="路径_8268" data-name="路径 8268" d="M714.33,795.546a4.516,4.516,0,1,1,0-9.031h.452a4.516,4.516,0,1,1,0,9.031Z" transform="translate(-691.274 -786.515)" fill="#b6d4ff"/>
      <path id="路径_8269" data-name="路径 8269" d="M738.171,795.546a4.516,4.516,0,0,1,0-9.031h.451a4.516,4.516,0,0,1,0,9.031Z" transform="translate(-696.57 -786.515)" fill="#b6d4ff"/>
      <path id="路径_8270" data-name="路径 8270" d="M762,795.546a4.516,4.516,0,0,1,0-9.031h.451a4.516,4.516,0,1,1,0,9.031Z" transform="translate(-701.864 -786.515)" fill="#b6d4ff"/>
    </g>
    <g id="组_1401" data-name="组 1401" transform="translate(276.53 641.663)">
      <path id="路径_8271" data-name="路径 8271" d="M667.174,818.766a4.516,4.516,0,0,1,0-9.031h.226a4.419,4.419,0,0,1,4.4,4.515,4.615,4.615,0,0,1-4.628,4.516Z" transform="translate(-402.587 -791.673)" fill="#b6d4ff"/>
      <path id="路径_8272" data-name="路径 8272" d="M333.459,818.766a4.516,4.516,0,0,1,0-9.031h.451a4.516,4.516,0,0,1,0,9.031Z" transform="translate(-328.46 -791.673)" fill="#b6d4ff"/>
      <path id="路径_8273" data-name="路径 8273" d="M357.294,818.766a4.516,4.516,0,1,1,0-9.031h.452a4.516,4.516,0,0,1,0,9.031Z" transform="translate(-333.754 -791.673)" fill="#b6d4ff"/>
      <path id="路径_8274" data-name="路径 8274" d="M381.135,818.766a4.516,4.516,0,1,1,0-9.031h.45a4.516,4.516,0,0,1,0,9.031Z" transform="translate(-339.05 -791.673)" fill="#b6d4ff"/>
      <path id="路径_8275" data-name="路径 8275" d="M404.969,818.766a4.516,4.516,0,1,1,0-9.031h.451a4.516,4.516,0,0,1,0,9.031Z" transform="translate(-344.344 -791.673)" fill="#b6d4ff"/>
      <path id="路径_8276" data-name="路径 8276" d="M428.8,818.766a4.516,4.516,0,1,1,0-9.031h.452a4.516,4.516,0,1,1,0,9.031Z" transform="translate(-349.638 -791.673)" fill="#b6d4ff"/>
      <path id="路径_8277" data-name="路径 8277" d="M452.644,818.766a4.516,4.516,0,0,1,0-9.031h.451a4.516,4.516,0,0,1,0,9.031Z" transform="translate(-354.934 -791.673)" fill="#b6d4ff"/>
      <path id="路径_8278" data-name="路径 8278" d="M476.479,818.766a4.516,4.516,0,1,1,0-9.031h.452a4.516,4.516,0,0,1,0,9.031Z" transform="translate(-360.229 -791.673)" fill="#b6d4ff"/>
      <path id="路径_8279" data-name="路径 8279" d="M500.32,818.766a4.516,4.516,0,0,1,0-9.031h.45a4.516,4.516,0,1,1,0,9.031Z" transform="translate(-365.524 -791.673)" fill="#b6d4ff"/>
      <path id="路径_8280" data-name="路径 8280" d="M524.154,818.766a4.516,4.516,0,1,1,0-9.031h.453a4.516,4.516,0,0,1,0,9.031Z" transform="translate(-370.819 -791.673)" fill="#b6d4ff"/>
      <path id="路径_8281" data-name="路径 8281" d="M547.995,818.766a4.516,4.516,0,1,1,0-9.031h.451a4.516,4.516,0,0,1,0,9.031Z" transform="translate(-376.114 -791.673)" fill="#b6d4ff"/>
      <path id="路径_8282" data-name="路径 8282" d="M571.83,818.766a4.516,4.516,0,1,1,0-9.031h.45a4.516,4.516,0,1,1,0,9.031h-.45Z" transform="translate(-381.409 -791.673)" fill="#b6d4ff"/>
      <path id="路径_8283" data-name="路径 8283" d="M595.664,818.766a4.516,4.516,0,0,1,0-9.031h.452a4.516,4.516,0,0,1,0,9.031Z" transform="translate(-386.703 -791.673)" fill="#b6d4ff"/>
      <path id="路径_8284" data-name="路径 8284" d="M619.5,818.766a4.516,4.516,0,0,1,0-9.031h.453a4.516,4.516,0,0,1,0,9.031Z" transform="translate(-391.997 -791.673)" fill="#b6d4ff"/>
      <path id="路径_8285" data-name="路径 8285" d="M643.339,818.766a4.516,4.516,0,1,1,0-9.031h.453a4.516,4.516,0,0,1,0,9.031Z" transform="translate(-397.293 -791.673)" fill="#b6d4ff"/>
      <path id="路径_8286" data-name="路径 8286" d="M332.838,795.546a4.516,4.516,0,1,1,0-9.031h.452a4.516,4.516,0,1,1,0,9.031Z" transform="translate(-328.322 -786.515)" fill="#b6d4ff"/>
      <path id="路径_8287" data-name="路径 8287" d="M356.679,795.546a4.516,4.516,0,0,1,0-9.031h.451a4.516,4.516,0,0,1,0,9.031Z" transform="translate(-333.618 -786.515)" fill="#b6d4ff"/>
      <path id="路径_8288" data-name="路径 8288" d="M380.513,795.546a4.516,4.516,0,1,1,0-9.031h.452a4.516,4.516,0,1,1,0,9.031Z" transform="translate(-338.912 -786.515)" fill="#b6d4ff"/>
      <path id="路径_8289" data-name="路径 8289" d="M404.354,795.546a4.516,4.516,0,0,1,0-9.031h.451a4.516,4.516,0,1,1,0,9.031Z" transform="translate(-344.208 -786.515)" fill="#b6d4ff"/>
      <path id="路径_8290" data-name="路径 8290" d="M428.188,795.546a4.516,4.516,0,0,1,0-9.031h.451a4.516,4.516,0,1,1,0,9.031Z" transform="translate(-349.502 -786.515)" fill="#b6d4ff"/>
      <path id="路径_8291" data-name="路径 8291" d="M452.023,795.546a4.516,4.516,0,1,1,0-9.031h.452a4.516,4.516,0,1,1,0,9.031Z" transform="translate(-354.796 -786.515)" fill="#b6d4ff"/>
      <path id="路径_8292" data-name="路径 8292" d="M475.864,795.546a4.516,4.516,0,1,1,0-9.031h.451a4.516,4.516,0,1,1,0,9.031Z" transform="translate(-360.092 -786.515)" fill="#b6d4ff"/>
      <path id="路径_8293" data-name="路径 8293" d="M499.7,795.546a4.516,4.516,0,0,1,0-9.031h.453a4.516,4.516,0,1,1,0,9.031Z" transform="translate(-365.386 -786.515)" fill="#b6d4ff"/>
      <path id="路径_8294" data-name="路径 8294" d="M523.539,795.546a4.516,4.516,0,0,1,0-9.031h.451a4.516,4.516,0,0,1,0,9.031Z" transform="translate(-370.682 -786.515)" fill="#b6d4ff"/>
      <path id="路径_8295" data-name="路径 8295" d="M547.374,795.546a4.516,4.516,0,0,1,0-9.031h.45a4.516,4.516,0,0,1,0,9.031Z" transform="translate(-375.976 -786.515)" fill="#b6d4ff"/>
      <path id="路径_8296" data-name="路径 8296" d="M571.214,795.546a4.516,4.516,0,0,1,0-9.031h.451a4.516,4.516,0,0,1,0,9.031Z" transform="translate(-381.272 -786.515)" fill="#b6d4ff"/>
      <path id="路径_8297" data-name="路径 8297" d="M595.048,795.546a4.516,4.516,0,1,1,0-9.031h.451a4.516,4.516,0,1,1,0,9.031h-.451Z" transform="translate(-386.566 -786.515)" fill="#b6d4ff"/>
      <path id="路径_8298" data-name="路径 8298" d="M618.883,795.546a4.516,4.516,0,0,1,0-9.031h.453a4.516,4.516,0,0,1,0,9.031Z" transform="translate(-391.861 -786.515)" fill="#b6d4ff"/>
      <path id="路径_8299" data-name="路径 8299" d="M642.718,795.546a4.516,4.516,0,0,1,0-9.031h.452a4.516,4.516,0,0,1,0,9.031Z" transform="translate(-397.155 -786.515)" fill="#b6d4ff"/>
      <path id="路径_8300" data-name="路径 8300" d="M666.559,795.546a4.516,4.516,0,1,1,0-9.031h.452a4.516,4.516,0,0,1,0,9.031Z" transform="translate(-402.451 -786.515)" fill="#b6d4ff"/>
    </g>
    <g id="组_1402" data-name="组 1402" transform="translate(258.347 606.607)">
      <path id="路径_8301" data-name="路径 8301" d="M333.832,773.7a4.516,4.516,0,1,1,0-9.031h.226a4.42,4.42,0,0,1,4.4,4.516,4.614,4.614,0,0,1-4.629,4.516Z" transform="translate(-310.293 -746.607)" fill="#b6d4ff"/>
      <path id="路径_8302" data-name="路径 8302" d="M310,773.7a4.516,4.516,0,1,1,0-9.031h.452a4.516,4.516,0,0,1,0,9.031Z" transform="translate(-304.999 -746.607)" fill="#b6d4ff"/>
      <path id="路径_8303" data-name="路径 8303" d="M309.377,750.479a4.515,4.515,0,1,1,0-9.03h.452a4.515,4.515,0,1,1,0,9.03Z" transform="translate(-304.861 -741.449)" fill="#b6d4ff"/>
      <path id="路径_8304" data-name="路径 8304" d="M333.217,750.479a4.515,4.515,0,0,1,0-9.03h.453a4.515,4.515,0,0,1,0,9.03Z" transform="translate(-310.157 -741.449)" fill="#b6d4ff"/>
    </g>
    <g id="组_1403" data-name="组 1403" transform="translate(258.347 588.502)">
      <path id="路径_8305" data-name="路径 8305" d="M309.377,727.26a4.516,4.516,0,0,1,0-9.031h.452a4.516,4.516,0,1,1,0,9.031Z" transform="translate(-304.861 -718.229)" fill="#b6d4ff"/>
      <path id="路径_8306" data-name="路径 8306" d="M333.217,727.26a4.516,4.516,0,0,1,0-9.031h.453a4.516,4.516,0,0,1,0,9.031Z" transform="translate(-310.157 -718.229)" fill="#b6d4ff"/>
    </g>
    <g id="组_1404" data-name="组 1404" transform="translate(258.347 641.838)">
      <path id="路径_8307" data-name="路径 8307" d="M333.832,818.99a4.515,4.515,0,1,1,0-9.03h.226a4.419,4.419,0,0,1,4.4,4.515,4.614,4.614,0,0,1-4.629,4.516Z" transform="translate(-310.293 -791.898)" fill="#b6d4ff"/>
      <path id="路径_8308" data-name="路径 8308" d="M310,818.99a4.515,4.515,0,1,1,0-9.03h.452a4.515,4.515,0,1,1,0,9.03Z" transform="translate(-304.999 -791.898)" fill="#b6d4ff"/>
      <path id="路径_8309" data-name="路径 8309" d="M309.377,795.771a4.516,4.516,0,0,1,0-9.031h.452a4.516,4.516,0,1,1,0,9.031Z" transform="translate(-304.861 -786.74)" fill="#b6d4ff"/>
      <path id="路径_8310" data-name="路径 8310" d="M333.217,795.771a4.516,4.516,0,0,1,0-9.031h.453a4.516,4.516,0,0,1,0,9.031Z" transform="translate(-310.157 -786.74)" fill="#b6d4ff"/>
    </g>
    <path id="路径_8311" data-name="路径 8311" d="M494.691,797.454a4.613,4.613,0,0,1-4.628-4.516,4.419,4.419,0,0,1,4.4-4.516h.226a4.516,4.516,0,1,1,0,9.031Zm278.133,0h-.453a4.516,4.516,0,1,1,0-9.031h.453a4.516,4.516,0,0,1,0,9.031Zm-18.546,0h-.45a4.516,4.516,0,1,1,0-9.031h.45a4.516,4.516,0,1,1,0,9.031Zm-18.54,0h-.453a4.516,4.516,0,0,1,0-9.031h.453a4.516,4.516,0,1,1,0,9.031Zm-18.545,0h-.451a4.516,4.516,0,0,1,0-9.031h.451a4.516,4.516,0,0,1,0,9.031Zm-18.54,0H698.2a4.516,4.516,0,1,1,0-9.031h.451a4.516,4.516,0,1,1,0,9.031Zm-18.541,0h-.452a4.516,4.516,0,0,1,0-9.031h.452a4.516,4.516,0,0,1,0,9.031Zm-18.545,0h-.45a4.516,4.516,0,1,1,0-9.031h.45a4.516,4.516,0,0,1,0,9.031Zm-18.54,0h-.453a4.516,4.516,0,0,1,0-9.031h.453a4.516,4.516,0,1,1,0,9.031Zm-18.545,0h-.451a4.516,4.516,0,0,1,0-9.031h.451a4.516,4.516,0,1,1,0,9.031Zm-18.541,0h-.452a4.516,4.516,0,1,1,0-9.031h.452a4.516,4.516,0,1,1,0,9.031Zm-18.545,0h-.452a4.516,4.516,0,0,1,0-9.031h.452a4.516,4.516,0,0,1,0,9.031Zm-18.537,0h-.455a4.516,4.516,0,0,1,0-9.031h.451a4.516,4.516,0,1,1,0,9.031Zm-18.544,0h-.453a4.516,4.516,0,0,1,0-9.031h.453a4.516,4.516,0,0,1,0,9.031Zm-18.54,0h-.453a4.516,4.516,0,0,1,0-9.031h.453a4.516,4.516,0,0,1,0,9.031Zm-18.546,0h-.452a4.516,4.516,0,0,1,0-9.031h.452a4.516,4.516,0,0,1,0,9.031Zm274.944-4.665a4.516,4.516,0,0,1-4.516-4.516v-.451a4.516,4.516,0,1,1,9.031,0v.451a4.515,4.515,0,0,1-4.516,4.516Zm0-18.545a4.516,4.516,0,0,1-4.516-4.516v-.451a4.516,4.516,0,1,1,9.031,0v.451a4.515,4.515,0,0,1-4.516,4.516Zm0-18.54a4.516,4.516,0,0,1-4.516-4.516v-.451a4.516,4.516,0,0,1,9.031,0v.451a4.515,4.515,0,0,1-4.516,4.516Zm0-18.545a4.516,4.516,0,0,1-4.516-4.516v-.451a4.516,4.516,0,0,1,9.031,0v.451a4.515,4.515,0,0,1-4.516,4.516Zm0-18.541a4.515,4.515,0,0,1-4.516-4.515v-.451a4.516,4.516,0,0,1,9.031,0v.451a4.515,4.515,0,0,1-4.516,4.515Zm0-18.54a4.515,4.515,0,0,1-4.516-4.516v-.453a4.516,4.516,0,0,1,9.031,0v.453a4.515,4.515,0,0,1-4.516,4.516Zm0-18.545a4.515,4.515,0,0,1-4.516-4.516v-.451a4.516,4.516,0,0,1,9.031,0v.451a4.515,4.515,0,0,1-4.516,4.516Zm0-37.085a4.516,4.516,0,0,1-4.516-4.516v-.451a4.516,4.516,0,1,1,9.031,0v.451a4.515,4.515,0,0,1-4.516,4.516Zm0-18.541a4.515,4.515,0,0,1-4.516-4.515v-.451a4.516,4.516,0,0,1,9.031,0v.451a4.515,4.515,0,0,1-4.516,4.515Zm0-18.54a4.517,4.517,0,0,1-4.516-4.516V602.4a4.516,4.516,0,0,1,9.031,0v.453a4.516,4.516,0,0,1-4.516,4.516Zm0-18.545a4.516,4.516,0,0,1-4.516-4.516v-.451a4.516,4.516,0,1,1,9.031,0v.451a4.515,4.515,0,0,1-4.516,4.516Zm0-18.685a4.425,4.425,0,0,1-4.516-4.4v-.226a4.516,4.516,0,0,1,9.031,0,4.616,4.616,0,0,1-4.516,4.628ZM476.63,779.392A4.614,4.614,0,0,1,472,774.878a4.419,4.419,0,0,1,4.4-4.516h.226a4.515,4.515,0,1,1,0,9.03Zm278.132,0h-.453a4.515,4.515,0,0,1,0-9.03h.453a4.515,4.515,0,1,1,0,9.03Zm-18.545,0h-.451a4.515,4.515,0,1,1,0-9.03h.451a4.515,4.515,0,1,1,0,9.03Zm-18.541,0h-.452a4.515,4.515,0,1,1,0-9.03h.452a4.515,4.515,0,1,1,0,9.03Zm-18.544,0h-.451a4.515,4.515,0,1,1,0-9.03h.451a4.515,4.515,0,0,1,0,9.03Zm-18.541,0h-.45a4.515,4.515,0,1,1,0-9.03h.45a4.515,4.515,0,1,1,0,9.03Zm-18.54,0H661.6a4.515,4.515,0,0,1,0-9.03h.453a4.515,4.515,0,1,1,0,9.03Zm-18.545,0h-.451a4.515,4.515,0,1,1,0-9.03h.451a4.515,4.515,0,1,1,0,9.03Zm-18.541,0h-.452a4.515,4.515,0,1,1,0-9.03h.452a4.515,4.515,0,1,1,0,9.03Zm-18.544,0h-.452a4.515,4.515,0,0,1,0-9.03h.452a4.515,4.515,0,0,1,0,9.03Zm-18.541,0h-.451a4.515,4.515,0,1,1,0-9.03h.451a4.515,4.515,0,0,1,0,9.03Zm-18.545,0h-.451a4.515,4.515,0,1,1,0-9.03h.451a4.515,4.515,0,1,1,0,9.03Zm-18.536,0h-.455a4.515,4.515,0,1,1,0-9.03h.451a4.515,4.515,0,1,1,0,9.03Zm-18.544,0H531.8a4.515,4.515,0,0,1,0-9.03h.452a4.515,4.515,0,1,1,0,9.03Zm-18.54,0h-.452a4.515,4.515,0,1,1,0-9.03h.452a4.515,4.515,0,0,1,0,9.03Zm-18.545,0h-.452a4.515,4.515,0,1,1,0-9.03h.452a4.515,4.515,0,1,1,0,9.03Zm274.944-4.664a4.516,4.516,0,0,1-4.515-4.516v-.451a4.515,4.515,0,1,1,9.03,0v.451a4.515,4.515,0,0,1-4.516,4.516Zm0-18.545a4.516,4.516,0,0,1-4.515-4.516v-.451a4.515,4.515,0,1,1,9.03,0v.451a4.515,4.515,0,0,1-4.516,4.516Zm0-18.54a4.515,4.515,0,0,1-4.515-4.516v-.451a4.515,4.515,0,1,1,9.03,0v.451a4.515,4.515,0,0,1-4.516,4.516Zm0-18.545a4.515,4.515,0,0,1-4.515-4.516v-.45a4.515,4.515,0,1,1,9.03,0v.45a4.515,4.515,0,0,1-4.516,4.516Zm0-18.54a4.516,4.516,0,0,1-4.515-4.516v-.451a4.515,4.515,0,0,1,9.03,0v.451a4.515,4.515,0,0,1-4.516,4.516Zm0-18.54A4.516,4.516,0,0,1,765.6,677.5v-.451a4.515,4.515,0,1,1,9.03,0v.451a4.515,4.515,0,0,1-4.516,4.516Zm0-18.545a4.516,4.516,0,0,1-4.515-4.516v-.451a4.515,4.515,0,1,1,9.03,0v.451a4.515,4.515,0,0,1-4.516,4.516Zm0-111.4" transform="translate(-83.906 -92.777)" fill="#b6d4ff"/>
    <path id="路径_8312" data-name="路径 8312" d="M395,797.454a4.516,4.516,0,1,1,0-9.031h.226a4.419,4.419,0,0,1,4.4,4.516A4.613,4.613,0,0,1,395,797.454Zm-278.133,0a4.516,4.516,0,0,1,0-9.031h.453a4.516,4.516,0,1,1,0,9.031Zm18.546,0a4.516,4.516,0,1,1,0-9.031h.45a4.516,4.516,0,1,1,0,9.031Zm18.54,0a4.516,4.516,0,1,1,0-9.031h.452a4.516,4.516,0,1,1,0,9.031Zm18.545,0a4.516,4.516,0,1,1,0-9.031h.451a4.516,4.516,0,1,1,0,9.031Zm18.54,0a4.516,4.516,0,1,1,0-9.031h.451a4.516,4.516,0,1,1,0,9.031Zm18.541,0a4.516,4.516,0,1,1,0-9.031h.452a4.516,4.516,0,1,1,0,9.031Zm18.545,0a4.516,4.516,0,1,1,0-9.031h.45a4.516,4.516,0,1,1,0,9.031Zm18.54,0a4.516,4.516,0,1,1,0-9.031h.453a4.516,4.516,0,0,1,0,9.031Zm18.545,0a4.516,4.516,0,1,1,0-9.031h.451a4.516,4.516,0,1,1,0,9.031Zm18.541,0a4.516,4.516,0,1,1,0-9.031h.452a4.516,4.516,0,1,1,0,9.031Zm18.544,0a4.516,4.516,0,0,1,0-9.031h.451a4.516,4.516,0,1,1,0,9.031Zm18.541,0a4.516,4.516,0,1,1,0-9.031h.451a4.516,4.516,0,0,1,0,9.031h-.451Zm18.54,0a4.516,4.516,0,0,1,0-9.031h.453a4.516,4.516,0,0,1,0,9.031Zm18.54,0a4.516,4.516,0,0,1,0-9.031h.453a4.516,4.516,0,1,1,0,9.031Zm18.546,0a4.516,4.516,0,1,1,0-9.031h.452a4.516,4.516,0,0,1,0,9.031ZM101.516,792.79A4.515,4.515,0,0,1,97,788.274v-.451a4.516,4.516,0,1,1,9.031,0v.451a4.516,4.516,0,0,1-4.516,4.516Zm0-18.545A4.515,4.515,0,0,1,97,769.729v-.451a4.516,4.516,0,1,1,9.031,0v.451a4.516,4.516,0,0,1-4.516,4.516Zm0-18.54A4.516,4.516,0,0,1,97,751.189v-.451a4.516,4.516,0,0,1,9.031,0v.451a4.516,4.516,0,0,1-4.516,4.516Zm0-18.545A4.516,4.516,0,0,1,97,732.644v-.451a4.516,4.516,0,0,1,9.031,0v.451a4.516,4.516,0,0,1-4.516,4.516Zm0-18.541A4.515,4.515,0,0,1,97,714.1v-.451a4.516,4.516,0,0,1,9.031,0v.451a4.515,4.515,0,0,1-4.516,4.515Zm0-18.54A4.515,4.515,0,0,1,97,695.563v-.453a4.516,4.516,0,0,1,9.031,0v.453a4.515,4.515,0,0,1-4.516,4.516Zm0-18.545A4.515,4.515,0,0,1,97,677.018v-.451a4.516,4.516,0,0,1,9.031,0v.451a4.515,4.515,0,0,1-4.516,4.516Zm0-37.085A4.516,4.516,0,0,1,97,639.933v-.451a4.516,4.516,0,1,1,9.031,0v.451a4.516,4.516,0,0,1-4.516,4.516Zm0-18.541A4.515,4.515,0,0,1,97,621.393v-.451a4.516,4.516,0,0,1,9.031,0v.451a4.515,4.515,0,0,1-4.516,4.515Zm0-18.54A4.516,4.516,0,0,1,97,602.853V602.4a4.516,4.516,0,0,1,9.031,0v.453a4.517,4.517,0,0,1-4.516,4.516Zm0-18.545A4.515,4.515,0,0,1,97,584.307v-.451a4.516,4.516,0,1,1,9.031,0v.451a4.516,4.516,0,0,1-4.516,4.516Zm0-18.685A4.616,4.616,0,0,1,97,565.51a4.516,4.516,0,0,1,9.031,0v.226a4.425,4.425,0,0,1-4.516,4.4ZM413.061,779.392a4.515,4.515,0,1,1,0-9.03h.226a4.419,4.419,0,0,1,4.4,4.516,4.614,4.614,0,0,1-4.629,4.515Zm-278.132,0a4.515,4.515,0,1,1,0-9.03h.452a4.515,4.515,0,1,1,0,9.03Zm18.545,0a4.515,4.515,0,1,1,0-9.03h.451a4.515,4.515,0,1,1,0,9.03Zm18.54,0a4.515,4.515,0,0,1,0-9.03h.453a4.515,4.515,0,1,1,0,9.03Zm18.545,0a4.515,4.515,0,0,1,0-9.03h.451a4.515,4.515,0,1,1,0,9.03Zm18.541,0a4.515,4.515,0,1,1,0-9.03h.45a4.515,4.515,0,1,1,0,9.03Zm18.54,0a4.515,4.515,0,1,1,0-9.03h.453a4.515,4.515,0,0,1,0,9.03Zm18.545,0a4.515,4.515,0,1,1,0-9.03h.451a4.515,4.515,0,1,1,0,9.03Zm18.541,0a4.515,4.515,0,1,1,0-9.03h.452a4.515,4.515,0,1,1,0,9.03Zm18.544,0a4.515,4.515,0,0,1,0-9.03h.451a4.515,4.515,0,1,1,0,9.03Zm18.541,0a4.515,4.515,0,0,1,0-9.03h.451a4.515,4.515,0,1,1,0,9.03Zm18.545,0a4.515,4.515,0,1,1,0-9.03h.451a4.515,4.515,0,1,1,0,9.03Zm18.54,0a4.515,4.515,0,1,1,0-9.03h.451a4.515,4.515,0,1,1,0,9.03H338.9Zm18.541,0a4.515,4.515,0,1,1,0-9.03h.452a4.515,4.515,0,0,1,0,9.03Zm18.54,0a4.515,4.515,0,0,1,0-9.03h.452a4.515,4.515,0,1,1,0,9.03Zm18.545,0a4.515,4.515,0,1,1,0-9.03h.452a4.515,4.515,0,1,1,0,9.03Zm-274.944-4.664a4.515,4.515,0,0,1-4.516-4.516v-.451a4.515,4.515,0,1,1,9.03,0v.451a4.516,4.516,0,0,1-4.515,4.516Zm0-18.545a4.515,4.515,0,0,1-4.516-4.516v-.451a4.515,4.515,0,1,1,9.03,0v.451a4.516,4.516,0,0,1-4.515,4.516Zm0-18.54a4.515,4.515,0,0,1-4.516-4.516v-.451a4.515,4.515,0,1,1,9.03,0v.451a4.515,4.515,0,0,1-4.515,4.516Zm0-18.545a4.515,4.515,0,0,1-4.516-4.516v-.45a4.515,4.515,0,1,1,9.03,0v.45a4.515,4.515,0,0,1-4.515,4.516Zm0-18.54a4.515,4.515,0,0,1-4.516-4.516v-.451a4.515,4.515,0,0,1,9.03,0v.451a4.516,4.516,0,0,1-4.515,4.516Zm0-18.54a4.515,4.515,0,0,1-4.516-4.516v-.451a4.515,4.515,0,1,1,9.03,0v.451a4.516,4.516,0,0,1-4.515,4.516Zm0-18.545a4.515,4.515,0,0,1-4.516-4.516v-.451a4.515,4.515,0,1,1,9.03,0v.451a4.516,4.516,0,0,1-4.515,4.516Zm0-111.4" transform="translate(-0.256 -92.777)" fill="#b6d4ff"/>
    <g id="组_1406" data-name="组 1406" transform="translate(95.849 133.414)">
      <g id="组_1405" data-name="组 1405" clip-path="url(#clip-path)">
        <path id="路径_8313" data-name="路径 8313" d="M844.49,691.927" transform="translate(-262.478 -257.308)" fill="#fff"/>
        <path id="路径_8314" data-name="路径 8314" d="M677.831,577.678H126.992a31.382,31.382,0,0,1-31.28-31.307V164.816a31.383,31.383,0,0,1,31.28-31.311H677.831a31.38,31.38,0,0,1,31.277,31.311V546.442a31.272,31.272,0,0,1-31.277,31.237ZM126.992,152.832a12,12,0,0,0-11.971,11.983V546.442a12,12,0,0,0,11.971,11.983H677.831A12,12,0,0,0,689.8,546.442V164.816a12,12,0,0,0-11.968-11.983Zm0,0" transform="translate(-95.819 -133.434)" fill="#76a6ef"/>
      </g>
    </g>
    <path id="路径_8315" data-name="路径 8315" d="M696.672,483.494H118.706V170.238a13.585,13.585,0,0,1,13.537-13.548H683.42a13.232,13.232,0,0,1,13.252,13.263Z" transform="translate(-5.077 -5.17)" fill="#cbe4fe"/>
    <path id="路径_8316" data-name="路径 8316" d="M729.65,865.328" transform="translate(-141.039 -162.359)" fill="#cbe4fe"/>
    <path id="路径_8317" data-name="路径 8317" d="M591.72,836.826" transform="translate(-110.345 -156.028)" fill="#fff"/>
    <path id="路径_8318" data-name="路径 8318" d="M484.842,788.346H330.589a25.67,25.67,0,0,1-20.164-9.621,25.93,25.93,0,0,1-5.132-21.816l18.24-84.2A20.72,20.72,0,0,1,343.7,656.387H472.659a20.858,20.858,0,0,1,20.164,16.253v.073l17.241,84.122a25.962,25.962,0,0,1-5.131,21.746,25.355,25.355,0,0,1-20.091,9.765ZM343.624,675.633a1.616,1.616,0,0,0-1.353,1.072L324.03,760.971a6.667,6.667,0,0,0,1.357,5.632,6.4,6.4,0,0,0,5.129,2.5H484.769a6.731,6.731,0,0,0,6.554-8.128v-.07l-17.241-84.125a1.365,1.365,0,0,0-1.28-1H343.624ZM111.567,575.258H703.432v19.319H111.567Zm0,0" transform="translate(-3.491 -97.926)" fill="#76a6ef"/>
    <g id="组_1409" data-name="组 1409" transform="translate(102.816 586.939)">
      <path id="路径_8319" data-name="路径 8319" d="M264.368,782.232,244.843,721.9a8.254,8.254,0,0,0-7.857-5.71H135.495a8.255,8.255,0,0,0-7.913,5.875l-18.093,60.172Zm4.589,0" transform="translate(-105.846 -716.169)" fill="#b6d4ff"/>
      <g id="组_1408" data-name="组 1408">
        <g id="组_1407" data-name="组 1407" clip-path="url(#clip-path-2)">
          <path id="路径_8320" data-name="路径 8320" d="M269.28,716.186l19.512,62.936,12.824,2.793-19.731-64.423Z" transform="translate(-141.34 -716.169)" fill="#9cc9ff"/>
          <path id="路径_8321" data-name="路径 8321" d="M111.1,803.665l22.232-3.632H244.852l22.361,4.349a1.5,1.5,0,0,1,1.171,1.525v42.958a1.479,1.479,0,0,1-1.427,1.526H111.317a1.479,1.479,0,0,1-1.427-1.526v-43.69a1.5,1.5,0,0,1,1.213-1.511Z" transform="translate(-105.935 -734.794)" fill="#b6d4ff"/>
          <path id="路径_8322" data-name="路径 8322" d="M116.891,810.608" transform="translate(-107.49 -737.143)" fill="#cbe4fe"/>
          <path id="路径_8323" data-name="路径 8323" d="M127.073,721.525a5.945,5.945,0,0,1,4.128-1.211H241.278c2.339,0,4.046.895,4.128,1.294l19.483,64.437H269.2l-19.8-65.607c-.73-2.463-4.128-4.251-8.119-4.251H131.2c-3.976,0-7.389,1.788-8.118,4.251L105.43,786.786h4.279Zm0,0a5.945,5.945,0,0,1,4.128-1.211H241.278c2.339,0,4.046.895,4.128,1.294l19.483,64.437H269.2l-19.8-65.607c-.73-2.463-4.128-4.251-8.119-4.251H131.2c-3.976,0-7.389,1.788-8.118,4.251L105.43,786.786h4.279Zm-1.514,73.091h4.128v28.9h-4.128Zm16.512,0H146.2v28.9h-4.128Zm16.511,0h4.128v28.9h-4.128Zm0,0" transform="translate(-104.944 -716.169)" fill="#5782cf"/>
          <path id="路径_8324" data-name="路径 8324" d="M244.847,834.124l17.475-2.917a4.128,4.128,0,0,0,3.455-4.127v-35.5a4.128,4.128,0,0,0-3.455-4.128l-17.475-2.862H129.94l-17.585,2.931a4.128,4.128,0,0,0-3.453,4.127v35.487a4.128,4.128,0,0,0,3.453,4.127l17.585,2.862ZM111.653,783.448l17.888-2.987H245.123l17.887,2.972a8.255,8.255,0,0,1,6.88,8.146v35.556a8.254,8.254,0,0,1-6.88,8.145l-17.887,2.972H129.541l-17.888-2.986a8.255,8.255,0,0,1-6.879-8.146V791.579a8.254,8.254,0,0,1,6.879-8.131ZM205.4,749.584l.688,9.013c-10.319-.207-13.76-2.752-18.424-10.045l-.33-.564.37-.551c4.445-6.591,7.459-8.792,16.87-8.957l.5,6.4,16.662-9.356-18.08-8.724.454,5.958c-9.989.193-14.86,2.6-20.447,10.252-5.311-6.041-12.081-8.353-24.327-8.449h-.895l-.88,5.807h1.2c11.517.1,16.828,1.954,21.259,7.6-5.242,6.151-11.407,8.256-23.873,8.394h-.895L154.31,763h1.2c13.856-.123,21.6-2.821,27.918-9.879,5.2,8.077,10.334,11.971,23.171,12.2l.482,6.248,18.066-11.421Zm0,0" transform="translate(-104.798 -718.527)" fill="#5782cf"/>
        </g>
      </g>
      <path id="路径_8325" data-name="路径 8325" d="M272.229,822.82a4.13,4.13,0,0,0-4.128,4.128V835.2a4.13,4.13,0,0,0,4.128,4.128h8.256a4.13,4.13,0,0,0,4.128-4.128v-8.256a4.13,4.13,0,0,0-4.128-4.128Zm0-4.127h8.256a8.256,8.256,0,0,1,8.256,8.255V835.2a8.256,8.256,0,0,1-8.256,8.256h-8.256a8.257,8.257,0,0,1-8.256-8.256v-8.256a8.257,8.257,0,0,1,8.256-8.255Zm0,0" transform="translate(-140.161 -738.939)" fill="#5782cf"/>
    </g>
    <circle id="椭圆_531" data-name="椭圆 531" cx="17.891" cy="17.891" r="17.891" transform="translate(384.711 510.608)" fill="none" stroke="#76a6ef" stroke-miterlimit="10" stroke-width="12"/>
    <g id="组_1410" data-name="组 1410" transform="translate(132.145 174.377)">
      <path id="路径_8326" data-name="路径 8326" d="M154.529,193.078H485.848q5.259,0,5.259,5.448V460.044q0,5.449-5.259,5.448H154.529q-5.259,0-5.259-5.448V198.526q0-5.448,5.259-5.448Zm0,0" transform="translate(-144.011 -187.63)" fill="#fff"/>
      <path id="路径_8327" data-name="路径 8327" d="M484.346,469.385H153.027a10.725,10.725,0,0,1-10.518-10.9V196.97a10.723,10.723,0,0,1,10.518-10.9H484.346a10.724,10.724,0,0,1,10.518,10.9V458.488a10.726,10.726,0,0,1-10.518,10.9ZM153.027,196.97V458.488H484.35l0-261.518Zm0,0" transform="translate(-142.509 -186.074)" fill="#5782cf"/>
      <rect id="矩形_1168" data-name="矩形 1168" width="128.846" height="18.388" transform="translate(161.278 215.888)" fill="#fff"/>
      <path id="路径_8328" data-name="路径 8328" d="M482.437,485.891H343.073V456.606H482.437Zm-128.846-10.9H471.919V467.5H353.591Zm0,0" transform="translate(-187.06 -246.167)" fill="#8db7ff"/>
      <rect id="矩形_1169" data-name="矩形 1169" width="337.891" height="10.897" transform="translate(5.259 32.69)" fill="#5782cf"/>
      <rect id="矩形_1170" data-name="矩形 1170" width="59.548" height="61.691" transform="translate(57.003 80.848)" fill="#fff"/>
      <path id="路径_8329" data-name="路径 8329" d="M279.093,355.589H209.021V283h70.072Zm-59.554-10.9h49.035v-50.8H219.539Zm0,0" transform="translate(-157.283 -207.603)" fill="#8db7ff"/>
      <path id="路径_8330" data-name="路径 8330" d="M342.881,284.131H453.7v10.9H342.881Zm-29.866,27.242H453.694v10.9H313.015ZM211.684,409.442h66.9v10.9h-66.9Zm-.972,27.242h67.877v10.9H210.712Zm102.3-98.069H453.694v10.9H313.015Zm0,27.242H453.694v10.9H313.015Zm0,0" transform="translate(-157.659 -207.855)" fill="#8db7ff"/>
      <path id="路径_8331" data-name="路径 8331" d="M178.157,212.082a5.707,5.707,0,1,1-5.7-5.908,5.806,5.806,0,0,1,5.7,5.908Zm16.615,0a5.707,5.707,0,1,1-5.7-5.908,5.8,5.8,0,0,1,5.7,5.908Zm17.219,0a5.707,5.707,0,1,1-5.7-5.908,5.805,5.805,0,0,1,5.7,5.908Zm3.623,0" transform="translate(-147.894 -190.539)" fill="#5782cf"/>
    </g>
    <g id="组_1413" data-name="组 1413" transform="translate(457.084 199.503)">
      <g id="组_1412" data-name="组 1412">
        <g id="组_1411" data-name="组 1411" clip-path="url(#clip-path-3)">
          <path id="路径_8332" data-name="路径 8332" d="M726.66,354.181a16.031,16.031,0,0,1,14.829,9.63,15.372,15.372,0,0,1-3.448,17.06,16.307,16.307,0,0,1-17.465,3.408,15.644,15.644,0,0,1-9.9-14.454,15.989,15.989,0,0,1,15.984-15.643ZM830.237,249.822h10.837v4.605H830.237Zm20.12,0h10.837v4.605H850.356ZM708.766,459.909H719.6v4.606H708.766Zm21.675,0h10.836v4.606H730.441Zm22.142,0H763.42v4.606H752.583Zm-86.66-4.6a15.646,15.646,0,1,1,16.023-15.641,15.3,15.3,0,0,1-4.646,11.106,16.066,16.066,0,0,1-11.376,4.536ZM653.215,218.576h10.838v4.6H653.215ZM791.176,352.811h10.837v4.605H791.176Zm22.141,0h10.838v4.605H813.318Zm22.1,0h10.837v4.605H835.422ZM697.5,218.576h10.837v4.6H697.5Zm-22.142,0h10.836v4.6H675.358ZM664.521,348.205h10.837v4.606H664.521Zm145.016,71.247a20.755,20.755,0,0,0-19.192,12.482,19.9,19.9,0,0,0,4.489,22.083,21.105,21.105,0,0,0,22.618,4.382,20.246,20.246,0,0,0,12.784-18.737,20.613,20.613,0,0,0-20.7-20.21ZM642.378,348.205h10.837v4.606H642.378Zm41.907,0h10.837v4.606H684.285Zm8.03-43.2a20.242,20.242,0,0,0-12.721-18.787,21.108,21.108,0,0,0-22.64,4.316,19.9,19.9,0,0,0-4.549,22.078,20.823,20.823,0,0,0,39.91-7.607ZM902.671,251.87a20.242,20.242,0,0,0-12.721-18.787,21.108,21.108,0,0,0-22.64,4.316,19.9,19.9,0,0,0-4.549,22.079,20.823,20.823,0,0,0,39.91-7.608ZM754.453,271.44a20.164,20.164,0,0,0,20.233-17.013h44.284v-4.605H775.154a20.109,20.109,0,0,0-20.7-19.029,20.327,20.327,0,1,0,0,40.647Zm0,0" transform="translate(-578.836 -218.42)" fill="#5782cf"/>
          <path id="路径_8333" data-name="路径 8333" d="M688.75,374.912a21.1,21.1,0,0,0,20.077,15.642,20.75,20.75,0,0,0,19.192-12.482,19.9,19.9,0,0,0-4.488-22.082,21.111,21.111,0,0,0-22.62-4.383,20.249,20.249,0,0,0-12.784,18.738v.989h-86v-.912a20.69,20.69,0,0,0-20.738-20.249,20.232,20.232,0,0,0,0,40.457,20.7,20.7,0,0,0,19.8-14.728H688.75Zm174.683-19.3a20.693,20.693,0,0,0-20.74,20.21v1.408H789.053c-7.094,0-14.619.914-18.36,6.431l-35.319,51.457a20.237,20.237,0,0,1-15.087,6.926H668.518V440.64a20.745,20.745,0,1,0-25.443,19.724,20.842,20.842,0,0,0,24.508-13.748H719.82a25.28,25.28,0,0,0,19.49-8.716l35.124-51.342c2.379-3.805,8.966-4.11,14.619-4.11h54.576a20.715,20.715,0,0,0,23.093,14.518,20.347,20.347,0,0,0,17.528-20.646,21.065,21.065,0,0,0-20.817-20.7ZM581.9,260.963a20.767,20.767,0,0,0,19.764-14.234h64.945a19.99,19.99,0,0,1,14.619,6.888l35.4,54.2a25.732,25.732,0,0,0,19.492,9.211h41.634a20.764,20.764,0,0,0,24.417,13.684,20.235,20.235,0,0,0,15.809-22.745,20.739,20.739,0,0,0-41.162,3.085v1.37H735.842a20.354,20.354,0,0,1-15.086-6.888l-35.318-54.273a22.693,22.693,0,0,0-18.323-8.715H602.13v-1.37A20.741,20.741,0,1,0,581.9,260.963Zm0,0" transform="translate(-560.692 -218.942)" fill="#5782cf"/>
        </g>
      </g>
      <path id="路径_8334" data-name="路径 8334" d="M583.378,226.845a16.059,16.059,0,0,1,11.35,4.549,15.551,15.551,0,0,1-.014,22.162,16.482,16.482,0,0,1-22.7.012A15.549,15.549,0,0,1,572,231.381a16.068,16.068,0,0,1,11.376-4.537Zm0,0" transform="translate(-562.172 -220.256)" fill="#5782cf"/>
    </g>
    <g id="组_1420" data-name="组 1420" transform="translate(583.387 579.13)">
      <path id="路径_8335" data-name="路径 8335" d="M824.312,823.866v21.48c0,10.246-21.744,15.645-48.556,15.645s-48.558-5.4-48.558-15.645V826.341c9.142,5.754,26.711,9.615,46.883,9.615,23.017,0,42.652-5.024,50.231-12.09Zm0,0" transform="translate(-723.98 -732.279)" fill="#b6d4ff"/>
      <g id="组_1415" data-name="组 1415">
        <g id="组_1414" data-name="组 1414" clip-path="url(#clip-path-4)">
          <path id="路径_8336" data-name="路径 8336" d="M728.079,824.983c10.144,3.7,25.717,6.064,43.17,6.064,30.559,0,55.331-7.251,55.331-16.185,0-2.46-1.879-4.8-5.245-6.885-10.144-3.7-25.717-6.064-43.17-6.064-30.56,0-55.331,7.251-55.331,16.186,0,2.46,1.878,4.8,5.244,6.884Zm0,0" transform="translate(-723.011 -727.403)" fill="#b6d4ff"/>
          <path id="路径_8337" data-name="路径 8337" d="M774.831,833.411c-22.239,0-40.442-3.906-48.557-10.629v20.341c0,6.14,21.8,12.948,48.557,12.948s48.557-6.809,48.557-12.948V823.03c-8.362,6.572-26.555,10.381-48.557,10.381ZM825.1,814.4a5.746,5.746,0,0,1,1.521,2.751v25.973c0,8.935-23.188,16.185-51.795,16.185s-51.795-7.251-51.795-16.185V817.636q0-1,1.91-3.237c0,8.935,21.279,15.775,49.884,15.775S825.1,823.333,825.1,814.4Zm0,0" transform="translate(-723.055 -730.176)" fill="#5782cf"/>
          <path id="路径_8338" data-name="路径 8338" d="M774.831,797.751v3.238c13.617,0,26.34,1.684,35.609,4.6,8.406,2.623,12.948,5.946,12.948,8.353s-4.488,5.73-12.948,8.351c-9.269,2.914-21.992,4.6-35.609,4.6s-26.34-1.683-35.609-4.6c-8.459-2.621-12.948-5.945-12.948-8.351,0-1.08.982-2.493,3.238-4.036l-1.835-2.666c-2.978,2.04-4.64,4.316-4.64,6.7,0,8.934,23.189,16.185,51.795,16.185s51.795-7.251,51.795-16.185-23.188-16.187-51.795-16.187Zm0,0v3.238c13.617,0,26.34,1.684,35.609,4.6,8.406,2.623,12.948,5.946,12.948,8.353s-4.488,5.73-12.948,8.351c-9.269,2.914-21.992,4.6-35.609,4.6s-26.34-1.683-35.609-4.6c-8.459-2.621-12.948-5.945-12.948-8.351,0-1.08.982-2.493,3.238-4.036l-1.835-2.666c-2.978,2.04-4.64,4.316-4.64,6.7,0,8.934,23.189,16.185,51.795,16.185s51.795-7.251,51.795-16.185-23.188-16.187-51.795-16.187Zm0,0" transform="translate(-723.055 -726.478)" fill="#5782cf"/>
        </g>
      </g>
      <path id="路径_8339" data-name="路径 8339" d="M824.195,779.509v20.563c0,8.935-21.836,14-48.762,14s-48.763-6.479-48.763-15.414v-19.1c9.181,4.975,26.825,10.491,47.082,10.491,23.114,0,42.833-4.381,50.443-10.543Zm0,0" transform="translate(-723.862 -722.426)" fill="#b6d4ff"/>
      <g id="组_1417" data-name="组 1417">
        <g id="组_1416" data-name="组 1416" clip-path="url(#clip-path-4)">
          <path id="路径_8340" data-name="路径 8340" d="M729.029,777.886c9.958,3.785,25.272,6.278,42.456,6.424,30.09.255,54.544-6.789,54.619-15.723.021-2.46-1.809-4.817-5.106-6.928-9.957-3.786-25.272-6.278-42.455-6.424-30.091-.255-54.544,6.789-54.62,15.723-.02,2.46,1.809,4.817,5.106,6.929Zm0,0" transform="translate(-723.252 -717.032)" fill="#b6d4ff"/>
          <path id="路径_8341" data-name="路径 8341" d="M774.831,787.634c-22.239,0-40.442-3.906-48.557-10.629v20.341c0,6.14,21.8,12.949,48.557,12.949s48.557-6.809,48.557-12.949V777.253c-8.362,6.571-26.555,10.381-48.557,10.381ZM825.1,768.621a5.742,5.742,0,0,1,1.521,2.751v25.973c0,8.934-23.188,16.185-51.795,16.185s-51.795-7.251-51.795-16.185V771.858q0-1,1.91-3.237c0,8.935,21.279,15.776,49.884,15.776s50.273-6.841,50.273-15.776Zm0,0" transform="translate(-723.055 -720.008)" fill="#5782cf"/>
          <path id="路径_8342" data-name="路径 8342" d="M774.831,751.975c28.606,0,51.795,7.251,51.795,16.185s-23.188,16.186-51.795,16.186-51.795-7.251-51.795-16.186c0-2.4,1.662-4.661,4.64-6.7l1.835,2.665c-2.256,1.543-3.238,2.957-3.238,4.036,0,6.14,21.8,12.949,48.557,12.949s48.557-6.81,48.557-12.949-21.8-12.948-48.557-12.948Zm0,0c28.606,0,51.795,7.251,51.795,16.185s-23.188,16.186-51.795,16.186-51.795-7.251-51.795-16.186c0-2.4,1.662-4.661,4.64-6.7l1.835,2.665c-2.256,1.543-3.238,2.957-3.238,4.036,0,6.14,21.8,12.949,48.557,12.949s48.557-6.81,48.557-12.949-21.8-12.948-48.557-12.948Zm0,0" transform="translate(-723.055 -716.31)" fill="#5782cf"/>
        </g>
      </g>
      <path id="路径_8343" data-name="路径 8343" d="M824.195,730.606v20.381c0,11.25-5.049,20.38-48.762,20.38-26.926,0-48.763-9.076-48.763-20.326V732.649c9.181,6.263,26.825,11.232,47.082,11.232,23.114,0,42.833-5.517,50.443-13.275Zm0,0" transform="translate(-723.862 -711.563)" fill="#b6d4ff"/>
      <g id="组_1419" data-name="组 1419">
        <g id="组_1418" data-name="组 1418" clip-path="url(#clip-path-4)">
          <path id="路径_8344" data-name="路径 8344" d="M731.964,730.073c9.393,3.955,23.9,6.709,40.233,7.149,28.6.769,51.97-5.856,52.211-14.787.066-2.459-1.629-4.847-4.723-7.013-9.392-3.955-23.9-6.71-40.232-7.149-28.6-.77-51.97,5.855-52.211,14.787-.066,2.459,1.629,4.847,4.722,7.014Zm0,0" transform="translate(-723.989 -706.589)" fill="#b6d4ff"/>
          <path id="路径_8345" data-name="路径 8345" d="M774.831,741.857c-22.239,0-40.442-3.906-48.557-10.628v20.339c0,6.14,21.8,12.949,48.557,12.949s48.557-6.809,48.557-12.949V731.477c-8.362,6.571-26.555,10.38-48.557,10.38ZM825.1,722.844a5.743,5.743,0,0,1,1.521,2.751v25.972c0,8.935-23.188,16.187-51.795,16.187s-51.795-7.251-51.795-16.187V726.081q0-1,1.91-3.237c0,8.935,21.279,15.776,49.884,15.776s50.273-6.841,50.273-15.776Zm0,0" transform="translate(-723.055 -709.839)" fill="#5782cf"/>
          <path id="路径_8346" data-name="路径 8346" d="M774.831,735.332c26.76,0,48.557-6.809,48.557-12.948s-21.8-12.948-48.557-12.948-48.557,6.809-48.557,12.948,21.8,12.948,48.557,12.948Zm0,3.237c-28.605,0-51.795-7.251-51.795-16.186S746.225,706.2,774.831,706.2s51.795,7.25,51.795,16.185-23.188,16.186-51.795,16.186Zm0,0" transform="translate(-723.055 -706.142)" fill="#5782cf"/>
        </g>
      </g>
    </g>
  </g>
</svg>
