<!-- 菜单图标：日志管理 -->
<svg xmlns="http://www.w3.org/2000/svg" width="18" height="18" viewBox="0 0 18 18">
  <g id="组_2" data-name="组 2" transform="translate(-36 -94)">
    <rect id="矩形_17" data-name="矩形 17" width="18" height="18" transform="translate(36 94)" fill="none"/>
    <path id="路径_8114" data-name="路径 8114" d="M63.962,69.236v3.472a.508.508,0,1,0,.98,0V69.236a.508.508,0,1,0-.98,0Zm-1.224-1.157h3.184a.581.581,0,0,0,.49-.643c0-.386-.123-.643-.49-.643H62.738c-.245,0-.489.386-.489.643S62.493,68.079,62.738,68.079Zm3.8,6.428a.58.58,0,0,0-.49-.642H62.738a.667.667,0,0,0,0,1.286h3.184a.594.594,0,0,0,.613-.644Zm2.449-6.428h6.49a.667.667,0,0,0,0-1.286h-6.49c-.245,0-.489.386-.489.643s.244.643.489.643Zm0,3.471h6.49a.667.667,0,0,0,0-1.286h-6.49a.869.869,0,0,0-.489.772.54.54,0,0,0,.489.514Zm0,3.6h6.49a.667.667,0,0,0,0-1.286h-6.49a.667.667,0,0,0,0,1.286ZM80.126,64.864a2.689,2.689,0,0,0-2.572-2.828H66.534a2.689,2.689,0,0,0-2.572,2.828v.772a.508.508,0,1,0,.98,0v-.772a1.564,1.564,0,0,1,1.469-1.671H77.554a1.565,1.565,0,0,1,1.47,1.671V77.207a1.564,1.564,0,0,1-1.47,1.671H66.534a1.564,1.564,0,0,1-1.47-1.671v-.9a.508.508,0,1,0-.979,0v.9a2.521,2.521,0,0,0,2.449,2.829H77.678a2.689,2.689,0,0,0,2.571-2.829l-.122-12.343Z" transform="translate(-26.248 31.964)" fill="#fff"/>
  </g>
</svg>
