<!-- 菜单图标：监控策略 -->
<svg xmlns="http://www.w3.org/2000/svg" width="18" height="18" viewBox="0 0 18 18">
  <g id="组_2" data-name="组 2" transform="translate(-36 -94)">
    <rect id="矩形_17" data-name="矩形 17" width="18" height="18" transform="translate(36 94)" fill="none"/>
    <path id="路径_8079" data-name="路径 8079" d="M13.775,28.132a.929.929,0,0,1,0,1.235l-2.833,3.088a.755.755,0,0,1-1.134,0l-.283-.309-1.7-1.852-2.267,2.47a.755.755,0,0,1-1.134,0,.929.929,0,0,1,0-1.234L7.26,28.44a.755.755,0,0,1,1.133,0L10.375,30.6l2.267-2.47a.755.755,0,0,1,1.133,0h0Zm2.689-3.3H1.736V35.976H16.464V24.834Zm0-1.714A1.676,1.676,0,0,1,18.1,24.834V35.977a1.676,1.676,0,0,1-1.636,1.715H1.736a1.6,1.6,0,0,1-1.157-.5A1.758,1.758,0,0,1,.1,35.976V24.834A1.676,1.676,0,0,1,1.736,23.12H16.464ZM13.6,40.263a.839.839,0,0,1-.818.857H5.009a.858.858,0,0,1,0-1.715h7.773A.839.839,0,0,1,13.6,40.263Z" transform="translate(35.9 70.88)" fill="#fff"/>
  </g>
</svg>
