<!-- 菜单图标：网络设置 -->
<svg xmlns="http://www.w3.org/2000/svg" width="18" height="18" viewBox="0 0 18 18">
  <g id="组_2" data-name="组 2" transform="translate(-36 -94)">
    <rect id="矩形_17" data-name="矩形 17" width="18" height="18" transform="translate(36 94)" fill="none"/>
    <g id="组_315" data-name="组 315" transform="translate(-25.486 20.971)">
      <path id="路径_8056" data-name="路径 8056" d="M623.028,660.162a.819.819,0,0,1-.291-.262l-.07-.127-.074-.123a.783.783,0,0,1-.082-.381,1.146,1.146,0,0,0-1.8-1.008.617.617,0,0,1-.381.107H620.1a.7.7,0,0,1-.409-.111,1.142,1.142,0,0,0-1.773,1.024.681.681,0,0,1-.106.41c-.045.07-.082.135-.119.2a.651.651,0,0,1-.283.283,1.148,1.148,0,0,0-.029,2.049.819.819,0,0,1,.291.262l.07.127.074.119a.91.91,0,0,1,.082.385,1.146,1.146,0,0,0,1.8,1.028.651.651,0,0,1,.385-.107h.25a.688.688,0,0,1,.409.111,1.142,1.142,0,0,0,1.76-1.02.709.709,0,0,1,.106-.41c.045-.07.086-.143.127-.217a.64.64,0,0,1,.282-.279,1.155,1.155,0,0,0,.651-1.036A1.143,1.143,0,0,0,623.028,660.162Zm-.368,1.352a1.384,1.384,0,0,0-.622.623l-.09.156a1.459,1.459,0,0,0-.229.856.361.361,0,0,1-.18.332.348.348,0,0,1-.377,0,1.473,1.473,0,0,0-.856-.229h-.18a1.412,1.412,0,0,0-.86.242.36.36,0,0,1-.389,0,.356.356,0,0,1-.18-.336,1.579,1.579,0,0,0-.209-.848l-.053-.086-.082-.086a1.527,1.527,0,0,0-.63-.6.369.369,0,0,1-.2-.328.365.365,0,0,1,.209-.328,1.4,1.4,0,0,0,.639-.623l.086-.152a1.447,1.447,0,0,0,.246-.873.361.361,0,0,1,.18-.336.339.339,0,0,1,.18-.049.36.36,0,0,1,.2.061,1.444,1.444,0,0,0,.868.238h.172a1.4,1.4,0,0,0,.856-.242.372.372,0,0,1,.389,0,.361.361,0,0,1,.18.336,1.608,1.608,0,0,0,.209.848.648.648,0,0,1,.053.09.465.465,0,0,1,.049.086,1.589,1.589,0,0,0,.63.606.365.365,0,0,1,0,.656Z" transform="translate(-544.177 -573.324)" fill="#fff"/>
      <path id="路径_8057" data-name="路径 8057" d="M727.958,752.993a1.228,1.228,0,1,0,.937-.127A1.23,1.23,0,0,0,727.958,752.993Zm.843,1.459a.442.442,0,0,1-.344.045.41.41,0,0,1-.274-.209.438.438,0,0,1-.045-.344.467.467,0,0,1,.209-.275.512.512,0,0,1,.225-.057.446.446,0,0,1,.409.225.455.455,0,0,1-.176.615Z" transform="translate(-652.553 -666.197)" fill="#fff"/>
      <path id="路径_8058" data-name="路径 8058" d="M72.67,89.947a8.182,8.182,0,0,1-1.81.283v-3.8a11.94,11.94,0,0,1,1.539.111.409.409,0,0,0,.434-.34.385.385,0,0,0-.34-.438,15.25,15.25,0,0,0-1.638-.115V82.409h3.8a10.959,10.959,0,0,1-.07,1.164.383.383,0,1,0,.761.078c.041-.41.061-.819.07-1.229h3.259a8.237,8.237,0,0,1-.332,1.975.41.41,0,1,0,.749.225,9.018,9.018,0,0,0-1.76-8.415.189.189,0,0,0-.029-.029,9,9,0,0,0-13.678,0l-.029.029a9.012,9.012,0,0,0,9.277,14.5.41.41,0,1,0-.209-.754ZM67.081,86.8a14.842,14.842,0,0,1,3-.373v3.777C68.854,89.972,67.777,88.669,67.081,86.8Zm3-1.155a15.57,15.57,0,0,0-3.246.41,14.21,14.21,0,0,1-.557-3.646h3.8Zm-7.815-3.237h3.222a14.985,14.985,0,0,0,.565,3.859,10.173,10.173,0,0,0-2.018.869,8.2,8.2,0,0,1-1.769-4.728Zm1.773-5.515a10.418,10.418,0,0,0,2.018.852,15.223,15.223,0,0,0-.569,3.868H62.267A8.144,8.144,0,0,1,64.04,76.894Zm9.825.32a14.838,14.838,0,0,1-2.993.373V73.825c1.2.234,2.284,1.532,2.98,3.4Zm-3.783-3.388v3.769a14.916,14.916,0,0,1-3-.373C67.781,75.358,68.854,74.059,70.082,73.825Zm0,4.552v3.245H66.275a14.427,14.427,0,0,1,.557-3.655,15.57,15.57,0,0,0,3.251.41Zm.782,0a15.571,15.571,0,0,0,3.246-.41,14.427,14.427,0,0,1,.557,3.655H70.86Zm7.815,3.245h-3.23a15.223,15.223,0,0,0-.569-3.868,10.526,10.526,0,0,0,2.018-.86A8.144,8.144,0,0,1,78.679,81.622Zm-2.3-5.326A9.621,9.621,0,0,1,74.647,77a7.949,7.949,0,0,0-1.7-2.831A8.22,8.22,0,0,1,76.37,76.3Zm-8.4-2.122A8,8,0,0,0,66.3,77.009a9.62,9.62,0,0,1-1.732-.709,8.232,8.232,0,0,1,3.406-2.126ZM64.56,87.726a9.8,9.8,0,0,1,1.736-.713,8.011,8.011,0,0,0,1.678,2.843,8.31,8.31,0,0,1-3.414-2.13Z" transform="translate(0 0)" fill="#fff"/>
    </g>
  </g>
</svg>
