<!-- 菜单图标：网监管理 -->
<svg xmlns="http://www.w3.org/2000/svg" width="18" height="18" viewBox="0 0 18 18">
  <g id="组_2" data-name="组 2" transform="translate(-36 -94)">
    <rect id="矩形_17" data-name="矩形 17" width="18" height="18" transform="translate(36 94)" fill="none"/>
    <g id="组_621" data-name="组 621" transform="translate(30.2 89.3)">
      <path id="路径_8095" data-name="路径 8095" d="M14.8,22.7a8.952,8.952,0,1,1,3.5-.7A8.946,8.946,0,0,1,14.8,22.7Zm0-17.151A8.151,8.151,0,1,0,22.947,13.7,8.158,8.158,0,0,0,14.8,5.549Z" fill="#fff"/>
      <path id="路径_8096" data-name="路径 8096" d="M122.862,127.939l0-.849a6.369,6.369,0,0,0,.78-.05l.106.842A7.024,7.024,0,0,1,122.862,127.939Zm-.885-.053a7.215,7.215,0,0,1-.872-.165l.209-.823a6.245,6.245,0,0,0,.768.145Zm2.641-.17-.212-.823a6.046,6.046,0,0,0,.741-.242l.313.789A6.415,6.415,0,0,1,124.619,127.716Zm-4.359-.269a7.059,7.059,0,0,1-.8-.377l.409-.745a6.253,6.253,0,0,0,.706.333Zm6-.384-.41-.743a6.566,6.566,0,0,0,.658-.419l.5.687A7.324,7.324,0,0,1,126.264,127.063Zm-7.557-.469a7.2,7.2,0,0,1-.685-.564l.58-.619a6.452,6.452,0,0,0,.6.5Zm8.989-.575-.582-.619a6.245,6.245,0,0,0,.534-.57l.655.541A6.772,6.772,0,0,1,127.7,126.019Zm-10.282-.635a7.139,7.139,0,0,1-.524-.717l.716-.457a6.169,6.169,0,0,0,.46.63Zm11.41-.729-.716-.455a6.28,6.28,0,0,0,.377-.685l.768.361A6.936,6.936,0,0,1,128.824,124.655Zm-12.362-.764a7.345,7.345,0,0,1-.329-.825l.807-.264a6.069,6.069,0,0,0,.288.726Zm13.117-.841-.808-.262a6.143,6.143,0,0,0,.193-.756l.835.157A7.12,7.12,0,0,1,129.579,123.05Zm-13.666-.844a7.315,7.315,0,0,1-.111-.881l.847-.053a6.313,6.313,0,0,0,.1.775Zm13.995-.9-.847-.051c.007-.127.012-.258.012-.388s0-.264-.012-.395l.847-.053c.009.149.014.3.014.448S129.917,121.163,129.908,121.31Zm-13.261-.821-.847-.051a7.352,7.352,0,0,1,.108-.881l.835.157A6.31,6.31,0,0,0,116.647,120.489Zm12.314-.789a5.847,5.847,0,0,0-.195-.756l.807-.262a7.213,7.213,0,0,1,.221.86Zm-12.028-.741-.808-.26a6.908,6.908,0,0,1,.326-.826l.77.361A6.122,6.122,0,0,0,116.934,118.958Zm11.547-.74a6.122,6.122,0,0,0-.377-.683l.716-.457a6.911,6.911,0,0,1,.428.777Zm-10.883-.672-.718-.455a7.129,7.129,0,0,1,.52-.718l.655.54A6.381,6.381,0,0,0,117.6,117.546Zm10.048-.642a6.5,6.5,0,0,0-.534-.57l.582-.619a7.217,7.217,0,0,1,.607.646Zm-9.057-.561-.582-.618a6.982,6.982,0,0,1,.683-.566l.5.687A5.749,5.749,0,0,0,118.588,116.343Zm7.92-.506a6.4,6.4,0,0,0-.66-.419l.41-.743a7.034,7.034,0,0,1,.748.476Zm-6.66-.414-.41-.743a7.059,7.059,0,0,1,.8-.38l.315.789A6.282,6.282,0,0,0,119.848,115.423Zm5.295-.338a6.063,6.063,0,0,0-.743-.241l.211-.823a7.138,7.138,0,0,1,.846.274Zm-3.849-.237-.212-.823a7.225,7.225,0,0,1,.872-.168l.108.842A6.256,6.256,0,0,0,121.293,114.848Zm2.34-.15a6.348,6.348,0,0,0-.78-.048h-.014l0-.849h.016a7.025,7.025,0,0,1,.885.055Z" transform="translate(-108.054 -107.169)" fill="#fff"/>
      <path id="路径_8097" data-name="路径 8097" d="M290.9,290.259h.069a10.909,10.909,0,0,1,1.3.1l.044.005a.066.066,0,0,0,.053-.016.078.078,0,0,0,.028-.051c0-.03.007-.055.009-.074a8.641,8.641,0,0,0,.044-.878,8.441,8.441,0,0,0-.051-.947c0-.034-.009-.08-.018-.136a.073.073,0,0,0-.081-.064l-.08.011c-.29.035-.63.065-1.187.088l-.127.005a.074.074,0,0,0-.069.074v1.808A.074.074,0,0,0,290.9,290.259Zm-3.726-3.171.094.067a2.761,2.761,0,0,0,.962.407l.051.012a.073.073,0,0,0,.087-.057c0-.009,0-.016.005-.023a4.35,4.35,0,0,1,1.139-2.134.037.037,0,0,0,.005-.043.032.032,0,0,0-.039-.016c-.085.023-.152.044-.2.06a3.956,3.956,0,0,0-2.079,1.552c-.016.023-.03.046-.044.069A.079.079,0,0,0,287.179,287.088Zm2.277,6.171a4.633,4.633,0,0,1-1.092-2.191c-.005-.025-.012-.062-.023-.1a.08.08,0,0,0-.032-.048.074.074,0,0,0-.055-.011l-.088.019a2.906,2.906,0,0,0-.985.4l-.092.064a.077.077,0,0,0-.021.1c.014.023.027.048.041.071a4.068,4.068,0,0,0,2.289,1.8.061.061,0,0,0,.069-.028.064.064,0,0,0-.009-.076Zm1.451-5.473c.048,0,.085,0,.113,0a9.76,9.76,0,0,0,1.134-.089c.014,0,.032-.005.053-.007a.072.072,0,0,0,.05-.032.079.079,0,0,0,.011-.06c-.009-.042-.018-.076-.025-.1a3.612,3.612,0,0,0-1.27-2.109c-.019-.016-.039-.03-.058-.044a.045.045,0,0,0-.053,0,.052.052,0,0,0-.028.048v2.329a.075.075,0,0,0,.021.053A.085.085,0,0,0,290.907,287.785Zm1.78-.313c0,.018.009.035.012.053a.073.073,0,0,0,.087.057l.1-.023a2.763,2.763,0,0,0,.932-.4l.08-.058a.077.077,0,0,0,.019-.1c-.035-.057-.064-.1-.085-.131a3.956,3.956,0,0,0-2.017-1.492c-.051-.018-.122-.039-.211-.064a.038.038,0,0,0-.035.065A4.335,4.335,0,0,1,292.686,287.472Zm-4.5,2.987a.073.073,0,0,0,.057-.081c0-.027-.007-.053-.009-.08a9.145,9.145,0,0,1-.05-.956,8.672,8.672,0,0,1,.06-1.053l.016-.117a.075.075,0,0,0-.055-.083l-.092-.021a3.17,3.17,0,0,1-1.1-.474l-.044-.032a.072.072,0,0,0-.06-.011.07.07,0,0,0-.046.041c-.019.044-.035.08-.046.106a4.348,4.348,0,0,0-.034,3.217c0,.011.007.02.011.028a.069.069,0,0,0,.046.042.072.072,0,0,0,.06-.011l.028-.019a3.441,3.441,0,0,1,1.194-.481C288.147,290.469,288.168,290.464,288.191,290.459Zm1.969.248a.482.482,0,0,0-.055,0,10.473,10.473,0,0,0-1.166.081c-.027,0-.064.007-.108.014a.074.074,0,0,0-.05.03.07.07,0,0,0-.011.058c.011.051.019.09.027.119a3.839,3.839,0,0,0,1.268,2.265c.018.014.035.028.053.041a.073.073,0,0,0,.115-.06v-2.476a.073.073,0,0,0-.074-.074Zm4.081-3.015c-.011-.023-.023-.053-.039-.09a.07.07,0,0,0-.046-.041.072.072,0,0,0-.06.011l-.03.021a3.258,3.258,0,0,1-1.139.485l-.065.016a.073.073,0,0,0-.055.083c.011.08.018.142.023.188a8.71,8.71,0,0,1,.051.98,8.848,8.848,0,0,1-.048.938l-.011.1a.073.073,0,0,0,.057.081.547.547,0,0,1,.067.016,3.442,3.442,0,0,1,1.194.48l.021.014a.067.067,0,0,0,.06.009.078.078,0,0,0,.046-.042l.027-.071a4.367,4.367,0,0,0-.053-3.173Zm-1.942,3.2a.075.075,0,0,0-.011-.058.065.065,0,0,0-.05-.03c-.041-.005-.074-.011-.1-.012a10.461,10.461,0,0,0-1.115-.081l-.115,0a.079.079,0,0,0-.051.021.075.075,0,0,0-.021.053v2.479a.074.074,0,0,0,.039.065.074.074,0,0,0,.076-.005l.074-.058a3.859,3.859,0,0,0,1.251-2.27C292.285,290.959,292.292,290.926,292.3,290.892Zm1.682.492-.087-.06a2.943,2.943,0,0,0-.989-.4l-.092-.021a.071.071,0,0,0-.085.058c-.011.048-.018.085-.025.113a4.637,4.637,0,0,1-1.1,2.192.062.062,0,0,0-.009.073.057.057,0,0,0,.065.027c.051-.016.1-.028.129-.041a4.078,4.078,0,0,0,2.144-1.729l.064-.11A.075.075,0,0,0,293.981,291.384Zm-3.775-6.047a.055.055,0,0,0-.055,0l-.041.032a3.637,3.637,0,0,0-1.3,2.18c0,.011-.005.025-.009.039a.081.081,0,0,0,.011.06.072.072,0,0,0,.05.032l.053.007a10.071,10.071,0,0,0,1.228.092h.018a.071.071,0,0,0,.051-.021.075.075,0,0,0,.021-.053v-2.323A.057.057,0,0,0,290.206,285.338Zm-.044,2.964-.085,0a10.4,10.4,0,0,1-1.217-.094l-.088-.012a.072.072,0,0,0-.053.014.079.079,0,0,0-.028.05c-.005.042-.011.078-.012.1a8.232,8.232,0,0,0-.055.982,8.487,8.487,0,0,0,.042.869c0,.021.005.05.009.085a.072.072,0,0,0,.028.05.075.075,0,0,0,.053.016c.021,0,.041-.005.062-.009a11.156,11.156,0,0,1,1.286-.094h.058a.073.073,0,0,0,.071-.074v-1.807A.072.072,0,0,0,290.162,288.3Z" transform="translate(-275.734 -275.635)" fill="#fff"/>
    </g>
  </g>
</svg>
