<svg id="组_919" data-name="组 919" xmlns="http://www.w3.org/2000/svg" width="19.917" height="23.538" viewBox="0 0 19.917 23.538">
  <g id="椭圆_2" data-name="椭圆 2" transform="translate(3.621)" fill="#fff" stroke="#545454" stroke-width="1.5">
    <ellipse cx="6.337" cy="7.242" rx="6.337" ry="7.242" stroke="none"/>
    <ellipse cx="6.337" cy="7.242" rx="5.587" ry="6.492" fill="none"/>
  </g>
  <g id="矩形_319" data-name="矩形 319" transform="translate(0 7.242)" fill="#fff" stroke="#545454" stroke-width="1.5">
    <rect width="19.917" height="16.296" rx="2" stroke="none"/>
    <rect x="0.75" y="0.75" width="18.417" height="14.796" rx="1.25" fill="none"/>
  </g>
  <g id="路径_434" data-name="路径 434" transform="translate(7.858 10.864)" fill="#fff">
    <path d="M 2.100401163101196 6.945136547088623 C 2.07167649269104 6.945136547088623 2.04919695854187 6.943766117095947 2.032132625579834 6.941993713378906 C 1.974721789360046 6.746936798095703 1.991705894470215 6.220317840576172 2.003271341323853 5.861606597900391 C 2.027911186218262 5.097106456756592 2.058591365814209 4.145676612854004 1.811541318893433 3.108036518096924 C 1.626691222190857 2.331696510314941 1.531781315803528 1.789336562156677 1.512851238250732 1.401186585426331 C 1.491941213607788 0.972506582736969 1.571461319923401 0.858686625957489 1.580601215362549 0.8471165895462036 C 1.607131242752075 0.8135266304016113 1.749921321868896 0.7499966025352478 2.100401163101196 0.7499966025352478 C 2.486931324005127 0.7499966025352478 2.650881290435791 0.9114565849304199 2.740581274032593 1.032906651496887 C 2.888771295547485 1.233546614646912 3.31865119934082 2.062566518783569 2.628371238708496 4.305986404418945 C 2.224411010742188 5.618831157684326 2.200108766555786 6.4371018409729 2.197703123092651 6.944689750671387 C 2.168058395385742 6.944978713989258 2.135708332061768 6.945136547088623 2.100401163101196 6.945136547088623 Z" stroke="none"/>
    <path d="M 2.100400924682617 -3.337860107421875e-06 C 3.60037088394165 -3.337860107421875e-06 4.250511169433594 1.584296703338623 3.345201015472412 4.526546478271484 C 2.43989109992981 7.468806743621826 3.60037088394165 7.695136547088623 2.100400924682617 7.695136547088623 C 0.600430965423584 7.695136547088623 1.647751092910767 5.658186912536621 1.081931114196777 3.281746387481689 C 0.516110897064209 0.9053068161010742 0.600430965423584 -3.337860107421875e-06 2.100400924682617 -3.337860107421875e-06 Z" stroke="none" fill="#545454"/>
  </g>
</svg>
