<!-- 图片上传：箭头图标 -->
<svg xmlns="http://www.w3.org/2000/svg" width="32" height="32" viewBox="0 0 32 32">
  <g id="组_1605" data-name="组 1605" transform="translate(-65.2 -63.9)">
    <path id="路径_8465" data-name="路径 8465" d="M95.942,73.672A16.048,16.048,0,1,0,97.2,79.9a15.927,15.927,0,0,0-1.258-6.228ZM81.2,93.009A13.109,13.109,0,1,1,94.309,79.9,13.125,13.125,0,0,1,81.2,93.009Z" transform="translate(0 0)" fill="#909399"/>
    <path id="路径_8466" data-name="路径 8466" d="M355.5,288.708a1.748,1.748,0,0,0-.612-.451s-.009,0-.013,0l-.064-.026a.06.06,0,0,0-.025-.008.237.237,0,0,0-.051-.017.292.292,0,0,1-.034-.013l-.042-.013-.043-.013a.123.123,0,0,0-.038-.009l-.047-.013c-.013,0-.026,0-.034-.009a.214.214,0,0,0-.051-.008c-.013,0-.021,0-.034,0s-.034,0-.051-.008-.026,0-.034,0-.034,0-.051,0a.118.118,0,0,1-.038,0h-.179a.118.118,0,0,0-.038,0c-.017,0-.034,0-.051,0s-.026,0-.034,0a.214.214,0,0,0-.051.008c-.013,0-.021,0-.034,0s-.034,0-.051.008-.025,0-.034.009l-.047.013c-.013,0-.026,0-.038.009l-.043.013-.043.013a.3.3,0,0,0-.034.013c-.017,0-.034.013-.051.017a.06.06,0,0,1-.025.008l-.064.026s-.008,0-.013,0a1.788,1.788,0,0,0-.612.451l-5.243,5.927a1.81,1.81,0,1,0,2.7,2.407l2.092-2.368v9c0,.055,0,.115.009.17s-.009.123-.009.187v1.288a1.794,1.794,0,1,0,3.589,0v-1.288a1.58,1.58,0,0,0-.013-.2c0-.051.008-.1.008-.157v-9l2.092,2.364a1.816,1.816,0,0,0,2.721-2.407Z" transform="translate(-272.936 -217.707)" fill="#909399"/>
  </g>
</svg>
