<!-- 设备类型：路由器 -->
<svg xmlns="http://www.w3.org/2000/svg" width="34" height="32" viewBox="0 0 34 32">
  <g id="组_1632" data-name="组 1632" transform="translate(-73.9 -82.2)">
    <path id="路径_8484" data-name="路径 8484" d="M105.37,96.473h-.834V83.465a1.242,1.242,0,1,0-2.483,0V96.473H92.565V83.465a1.242,1.242,0,1,0-2.483,0V96.473H80.074V83.465a1.242,1.242,0,1,0-2.483,0V96.473H76.43A2.557,2.557,0,0,0,73.9,99.05v12.573a2.557,2.557,0,0,0,2.53,2.577h28.94a2.557,2.557,0,0,0,2.53-2.577V99.05A2.559,2.559,0,0,0,105.37,96.473Zm.043,15.15a.048.048,0,0,1-.047.047H76.43a.048.048,0,0,1-.047-.047V99.05A.048.048,0,0,1,76.43,99h28.94a.048.048,0,0,1,.047.047v12.573Z" fill="#303133"/>
    <path id="路径_8485" data-name="路径 8485" d="M217.157,612.129a2.348,2.348,0,1,0,0-3.32A2.348,2.348,0,0,0,217.157,612.129Z" transform="translate(-136.934 -505.134)" fill="#303133"/>
    <path id="路径_8486" data-name="路径 8486" d="M401.041,612.1a2.348,2.348,0,1,0,0-3.32A2.348,2.348,0,0,0,401.041,612.1Z" transform="translate(-313.55 -505.102)" fill="#303133"/>
  </g>
</svg>
