<!-- 菜单图标：客服服务 -->
<svg xmlns="http://www.w3.org/2000/svg" width="18" height="18" viewBox="0 0 18 18">
  <g id="组_2" data-name="组 2" transform="translate(-36 -94)">
    <rect id="矩形_17" data-name="矩形 17" width="18" height="18" transform="translate(36 94)" fill="none"/>
    <g id="组_619" data-name="组 619" transform="translate(1)">
      <path id="路径_8088" data-name="路径 8088" d="M134.7,21.328H120.223a.72.72,0,0,0-.534.239.864.864,0,0,0-.222.584V38.5a.847.847,0,0,0,.335.687.7.7,0,0,0,.708.074l6.953-3.1,6.953,3.1a.66.66,0,0,0,.282.062.725.725,0,0,0,.435-.138.847.847,0,0,0,.335-.685V22.151a.864.864,0,0,0-.225-.587A.718.718,0,0,0,134.7,21.328Zm-.752,15.956-6.21-2.765a.751.751,0,0,0-.574,0l-6.192,2.76V22.97H133.95Z" transform="translate(-83.467 72.672)" fill="#fff"/>
      <path id="路径_8090" data-name="路径 8090" d="M258.508,208.076a.568.568,0,0,1-.566-.61l.135-1.83-1.13-1.393a.568.568,0,0,1,.3-.908l1.676-.425.906-1.55a.568.568,0,0,1,.98,0l.906,1.55,1.675.425a.568.568,0,0,1,.3.908l-1.13,1.393.135,1.83a.568.568,0,0,1-.792.563l-1.586-.688-1.586.688A.568.568,0,0,1,258.508,208.076Zm-.12-3.858.712.878a.567.567,0,0,1,.125.4l-.082,1.118.951-.413a.567.567,0,0,1,.452,0l.95.412-.082-1.118a.568.568,0,0,1,.125-.4l.712-.878-1.045-.265a.567.567,0,0,1-.351-.264l-.536-.917-.536.917a.567.567,0,0,1-.351.264Z" transform="translate(-216.32 -103.079)" fill="#fff"/>
    </g>
  </g>
</svg>
