<!-- 菜单管理：服务点管理 -->
<svg xmlns="http://www.w3.org/2000/svg" width="17" height="18" viewBox="0 0 17 18">
  <g id="组_623" data-name="组 623" transform="translate(-111.9 -96.125)">
    <path id="路径_8104" data-name="路径 8104" d="M311.256,269.91l-4.356-2.551v-5.106l4.356-2.553,4.356,2.551v5.1Zm-3.37-3.129,3.372,1.975,3.372-1.975v-3.949l-3.372-1.975-3.372,1.975Zm0,0" transform="translate(-190.857 -160.045)" fill="#fff"/>
    <path id="路径_8105" data-name="路径 8105" d="M488.8,496.2h.984v4.525H488.8Z" transform="translate(-368.892 -391.441)" fill="#fff"/>
    <path id="路径_8106" data-name="路径 8106" d="M500.4,373.564l3.865-2.264.493.865-3.865,2.264Zm0,0" transform="translate(-380.245 -269.237)" fill="#fff"/>
    <path id="路径_8107" data-name="路径 8107" d="M164.74,102.931l.493-.865,3.865,2.264-.493.865Zm5.378,9.828-.493-.868,5.688-3.332v-6.8h.984v7.087a.5.5,0,0,1-.246.434Zm-2.543,0-5.928-3.472a.5.5,0,0,1-.246-.434v-7.087h.984v6.8l5.684,3.328ZM163.047,100.6l-.493-.868,6.049-3.541a.491.491,0,0,1,.493,0l6.047,3.541-.493.868-5.8-3.4Zm0,0" transform="translate(-48.448)" fill="#fff"/>
    <path id="路径_8108" data-name="路径 8108" d="M127.357,238.634a1.567,1.567,0,1,1,1.543-1.567A1.555,1.555,0,0,1,127.357,238.634Zm0-2.13a.565.565,0,1,0,.559.565A.562.562,0,0,0,127.357,236.5Zm0,0-13.915,2.13a1.567,1.567,0,1,1,1.543-1.567A1.555,1.555,0,0,1,113.443,238.634Zm0-2.13a.565.565,0,1,0,.559.565A.562.562,0,0,0,113.443,236.5Zm0,0,6.954,13.989a1.567,1.567,0,1,1,1.543-1.567A1.555,1.555,0,0,1,120.4,250.492Zm0-2.132a.565.565,0,1,0,.559.565A.562.562,0,0,0,120.4,248.36Zm0,0" transform="translate(0 -136.367)" fill="#fff"/>
  </g>
</svg>



