<!-- 设备类型：单台服务器 -->
<svg xmlns="http://www.w3.org/2000/svg" width="31" height="32" viewBox="0 0 31 32">
  <g id="组_1615" data-name="组 1615" transform="translate(-112 -97.8)">
    <path id="路径_8473" data-name="路径 8473" d="M140.71,99.737a.359.359,0,0,1,.353.353v6.5a.359.359,0,0,1-.353.353H114.29a.359.359,0,0,1-.353-.353v-6.5a.359.359,0,0,1,.353-.353h26.42m0-1.937H114.29a2.3,2.3,0,0,0-2.29,2.29v6.5a2.3,2.3,0,0,0,2.29,2.29h26.42a2.3,2.3,0,0,0,2.29-2.29v-6.5A2.3,2.3,0,0,0,140.71,97.8Z" transform="translate(0)" fill="#303133"/>
    <path id="路径_8474" data-name="路径 8474" d="M118.917,214h-2.325v2.324h2.325Zm3.991,0h-2.325v2.324h2.325Zm15.984,0h-8.331v2.324h8.331Zm1.817,7.9a.359.359,0,0,1,.353.353v6.5a.359.359,0,0,1-.353.353H114.29a.359.359,0,0,1-.353-.353v-6.5a.359.359,0,0,1,.353-.353h26.42m0-1.937H114.29a2.3,2.3,0,0,0-2.29,2.289v6.5a2.3,2.3,0,0,0,2.29,2.29h26.42a2.3,2.3,0,0,0,2.29-2.29v-6.5A2.3,2.3,0,0,0,140.71,219.958Z" transform="translate(0 -111.698)" fill="#303133"/>
    <path id="路径_8475" data-name="路径 8475" d="M118.917,484h-2.325v2.325h2.325Zm3.991,0h-2.325v2.325h2.325Zm15.984,0h-8.331v2.325h8.331Zm1.817,7.9a.359.359,0,0,1,.353.353v6.5a.359.359,0,0,1-.353.352H114.29a.359.359,0,0,1-.353-.352v-6.5a.359.359,0,0,1,.353-.353h26.42m0-1.937H114.29a2.3,2.3,0,0,0-2.29,2.289v6.5a2.3,2.3,0,0,0,2.29,2.289h26.42a2.3,2.3,0,0,0,2.29-2.289v-6.5A2.3,2.3,0,0,0,140.71,489.959Z" transform="translate(0 -371.238)" fill="#303133"/>
    <path id="路径_8476" data-name="路径 8476" d="M232.825,754H230.5v2.325h2.325Zm3.991,0h-2.325v2.325h2.325Zm15.984,0h-8.331v2.325H252.8Z" transform="translate(-113.908 -630.778)" fill="#303133"/>
  </g>
</svg>
