<!-- 菜单图标：仓库管理 -->
<svg xmlns="http://www.w3.org/2000/svg" width="18" height="18" viewBox="0 0 18 18">
  <g id="组_618" data-name="组 618" transform="translate(-65.553 -66.505)">
    <path id="路径_8066" data-name="路径 8066" d="M73.7,66.8a1.436,1.436,0,0,1,1.721-.01l.015.012,7.9,6.012a.544.544,0,0,1-.654.871l-.007-.005-7.9-6.013a.344.344,0,0,0-.409,0l-.006,0-7.93,6.013a.544.544,0,0,1-.667-.861l.007-.005Z" transform="translate(0 0)" fill="#fff"/>
    <path id="路径_8067" data-name="路径 8067" d="M153.09,346v10.052a1.23,1.23,0,0,0,1.211,1.229h9.914a1.231,1.231,0,0,0,1.231-1.209V346h1.09v10.052a2.319,2.319,0,0,1-2.283,2.317h-9.932A2.32,2.32,0,0,1,152,356.089V346Z" transform="translate(-84.702 -273.863)" fill="#fff"/>
    <path id="路径_8068" data-name="路径 8068" d="M254.058,333.823a.887.887,0,0,1,.888.886v3.163a.887.887,0,0,1-.888.887h-3.169a.887.887,0,0,1-.889-.887v-3.163a.887.887,0,0,1,.889-.886Zm5.9,0a.887.887,0,0,1,.888.886v3.163a.887.887,0,0,1-.888.887h-3.169a.887.887,0,0,1-.888-.887v-3.163a.887.887,0,0,1,.888-.886Zm-6.1,1.088H251.09v2.76h2.766Zm5.895,0h-2.766v2.76h2.766ZM254.058,328a.887.887,0,0,1,.888.886v3.163a.887.887,0,0,1-.888.887h-3.169a.888.888,0,0,1-.889-.887v-3.163a.887.887,0,0,1,.889-.886Zm-.2,1.088H251.09v2.761h2.766Z" transform="translate(-180.723 -256.226)" fill="#fff"/>
  </g>
</svg>
