<!-- 设备类型：交换机 -->
<svg xmlns="http://www.w3.org/2000/svg" width="35" height="32" viewBox="0 0 35 32">
  <g id="组_1628" data-name="组 1628" transform="translate(-39.936 -61.947)">
    <path id="路径_8477" data-name="路径 8477" d="M74.936,83.105a.722.722,0,0,0-.018-.207L71.9,64.583a3.393,3.393,0,0,0-.892-1.826,2.73,2.73,0,0,0-1.974-.809H45.858a2.961,2.961,0,0,0-2.05.828,2.87,2.87,0,0,0-.816,1.939L39.974,82.785a2.31,2.31,0,0,0-.038.339v7.718a3.227,3.227,0,0,0,2.448,2.974l.019.019h.076l.038.018.038.019h.038l.019.018h.057l.209.019.095.019h.038l.038.018H71.709a3.226,3.226,0,0,0,3.226-3.219V83.105h0ZM45.042,64.281a.909.909,0,0,0,.019-.226.17.17,0,0,1,.057-.132.235.235,0,0,1,.152-.075h24.5c.019,0,.037,0,.058.038a.633.633,0,0,1,.17.4l2.506,16.462a1.177,1.177,0,0,0-.247-.019H42.992a1.091,1.091,0,0,0-.247.019ZM73.018,91.068a.549.549,0,0,1-.55.546H42.384a.548.548,0,0,1-.531-.471v-.018h-.019V83.219a.562.562,0,0,1,.569-.527H72.45a.482.482,0,0,1,.38.169.537.537,0,0,1,.171.358v7.85h.018Z" transform="translate(0 0)" fill="#303133"/>
    <path id="路径_8478" data-name="路径 8478" d="M317.267,374.675h3.526v1.788h-3.526Zm0-2.767h3.526V373.7h-3.526Zm-5.9,2.767h3.526v1.788h-3.526Zm0-2.767h3.526V373.7h-3.526Zm-6.143,2.767h3.526v1.788h-3.526Zm0-2.767h3.526V373.7h-3.526Zm-5.9,2.767h3.526v1.788h-3.526Zm0-2.767h3.526V373.7h-3.526Zm4.866-7.191c.3,0,.607-.546.8-.791l1.613-2.391-1.613-1.6-1.594,2.391h-3.208c-.569,0-.8.546-.8,1.129s.228,1.261.8,1.261Z" transform="translate(-249.776 -287.033)" fill="#303133"/>
    <path id="路径_8479" data-name="路径 8479" d="M274.391,174.427h-4l-5.618-7.963c-.19-.019-.493,0-.8,0h-3.227v-1.6l-3.208,3.2,3.208,2.391v-1.6h3.151l4.878,7.172c.189.245.493.791.8.791h4.574a1.073,1.073,0,0,0,1.044-1.092C275.207,175.123,274.979,174.427,274.391,174.427Z" transform="translate(-209.533 -99.133)" fill="#303133"/>
    <path id="路径_8480" data-name="路径 8480" d="M523.554,166.957h-3.208a2.4,2.4,0,0,0-1.252.584l-1.975,1.807,1.613,1.6,1.613-1.6h3.208v1.6l3.208-2.391-3.208-3.181v1.581Z" transform="translate(-459.494 -99.626)" fill="#303133"/>
    <path id="路径_8481" data-name="路径 8481" d="M167.186,711.064m-1.186,0a1.186,1.186,0,1,0,1.186-1.177A1.181,1.181,0,0,0,166,711.064Z" transform="translate(-121.391 -624.119)" fill="#303133"/>
  </g>
</svg>
