<!-- 菜单图标：交换机配置与管理 -->
<svg xmlns="http://www.w3.org/2000/svg" width="18" height="18" viewBox="0 0 18 18">
  <g id="组_2" data-name="组 2" transform="translate(-36 -94)">
    <rect id="矩形_17" data-name="矩形 17" width="18" height="18" transform="translate(36 94)" fill="none"/>
    <path id="联合_2" data-name="联合 2" d="M41.409-1224.422l-.02-.009H41.37l-.049-.01-.107-.009h-.029l-.01-.009h-.02l-.019-.01-.02-.009h-.039l-.01-.009a1.625,1.625,0,0,1-1.259-1.487v-3.859a1.114,1.114,0,0,1,.02-.169l1.552-9.036a1.416,1.416,0,0,1,.42-.969,1.545,1.545,0,0,1,1.054-.414H54.772a1.424,1.424,0,0,1,1.015.4,1.678,1.678,0,0,1,.459.913l1.552,9.158a.351.351,0,0,1,.009.1h0v3.811a1.637,1.637,0,0,1-1.659,1.61Zm-.625-5.364v3.953h.01v.009a.279.279,0,0,0,.273.236H56.539a.278.278,0,0,0,.283-.273h-.009v-3.925a.266.266,0,0,0-.088-.179.252.252,0,0,0-.2-.085H41.073A.286.286,0,0,0,40.784-1229.786Zm15.648-1.247a.631.631,0,0,1,.127.009l-1.289-8.231a.313.313,0,0,0-.088-.2c-.01-.019-.02-.019-.03-.019h-12.6a.122.122,0,0,0-.078.038.084.084,0,0,0-.029.066.441.441,0,0,1-.01.113l-1.181,8.231a.585.585,0,0,1,.127-.009Zm-2.453,4.353v-.894h1.813v.894Zm-3.033,0v-.894h1.813v.894Zm-3.159,0v-.894H49.6v.894Zm-3.033,0v-.894h1.813v.894Zm-2.542-1.242a.6.6,0,0,1,.61-.588.6.6,0,0,1,.61.588.6.6,0,0,1-.61.588A.6.6,0,0,1,42.211-1227.923Zm11.768-.141v-.894h1.813v.894Zm-3.033,0v-.894h1.813v.894Zm-3.159,0v-.894H49.6v.894Zm-3.033,0v-.894h1.813v.894Zm5.392-4.49c-.156,0-.313-.273-.41-.4l-2.509-3.586h-1.62v.8l-1.65-1.2,1.65-1.6v.8h1.659c.156,0,.312-.009.41,0l2.889,3.981h2.06c.3,0,.42.348.41.649a.544.544,0,0,1-.537.546Zm-4.949,0c-.293,0-.41-.339-.41-.631s.117-.565.41-.565h1.65l.82-1.2.83.8-.83,1.2c-.1.122-.254.4-.41.4Zm7.018-3.981h-1.65l-.83.8-.83-.8,1.015-.9a1.252,1.252,0,0,1,.644-.292h1.65v-.791l1.65,1.591-1.65,1.2Z" transform="translate(-3.808 1335.423)" fill="#fff"/>
  </g>
</svg>

