<!-- 菜单图标：系统设置与维护 -->
<svg xmlns="http://www.w3.org/2000/svg" width="18" height="18" viewBox="0 0 18 18">
  <g id="组_2" data-name="组 2" transform="translate(-36 -94)">
    <rect id="矩形_17" data-name="矩形 17" width="18" height="18" transform="translate(36 94)" fill="none"/>
    <g id="组_624" data-name="组 624" transform="translate(-122.934 -76.963)">
      <path id="路径_8109" data-name="路径 8109" d="M529.313,517.46a2.721,2.721,0,1,1,2.7-2.721A2.714,2.714,0,0,1,529.313,517.46Zm0-4.128a1.41,1.41,0,1,0,1.4,1.41A1.406,1.406,0,0,0,529.313,513.331Z" transform="translate(-358.336 -331.343)" fill="#fff"/>
      <path id="路径_8110" data-name="路径 8110" d="M408.769,411.839a1.517,1.517,0,0,1-.884-.287,1.483,1.483,0,0,0-1.832,0,1.5,1.5,0,0,1-1.488.156,5.878,5.878,0,0,1-1.052-.612,1.531,1.531,0,0,1-.621-1.385,1.592,1.592,0,0,0-.184-.959,1.547,1.547,0,0,0-.732-.642,1.524,1.524,0,0,1-.881-1.238c-.019-.2-.03-.4-.03-.6s.011-.4.03-.6a1.533,1.533,0,0,1,.881-1.238,1.5,1.5,0,0,0,.916-1.6,1.531,1.531,0,0,1,.621-1.385,5.877,5.877,0,0,1,1.052-.612,1.5,1.5,0,0,1,1.491.156,1.483,1.483,0,0,0,1.832,0,1.5,1.5,0,0,1,1.491-.156,6.027,6.027,0,0,1,1.065.62,1.522,1.522,0,0,1,.607,1.377,1.591,1.591,0,0,0,.184.959,1.547,1.547,0,0,0,.732.642,1.524,1.524,0,0,1,.881,1.238c.019.2.03.4.03.6s-.011.4-.03.6a1.533,1.533,0,0,1-.881,1.238,1.5,1.5,0,0,0-.916,1.6,1.522,1.522,0,0,1-.607,1.377,5.869,5.869,0,0,1-1.065.62A1.5,1.5,0,0,1,408.769,411.839Zm-1.8-1.915a2.859,2.859,0,0,1,1.678.566.2.2,0,0,0,.2.025,4.576,4.576,0,0,0,.829-.484.211.211,0,0,0,.079-.183,2.921,2.921,0,0,1,.352-1.746,2.86,2.86,0,0,1,1.323-1.18.211.211,0,0,0,.122-.172,4.541,4.541,0,0,0,0-.94.211.211,0,0,0-.122-.172,2.874,2.874,0,0,1-1.323-1.18,2.92,2.92,0,0,1-.352-1.746.2.2,0,0,0-.079-.183,4.606,4.606,0,0,0-.829-.484.2.2,0,0,0-.2.025,2.771,2.771,0,0,1-3.355,0,.2.2,0,0,0-.2-.025,4.536,4.536,0,0,0-.819.475.206.206,0,0,0-.087.191,2.921,2.921,0,0,1-.352,1.746,2.86,2.86,0,0,1-1.323,1.18.211.211,0,0,0-.122.172,4.541,4.541,0,0,0,0,.94.211.211,0,0,0,.122.172,2.874,2.874,0,0,1,1.323,1.18,2.921,2.921,0,0,1,.352,1.746.208.208,0,0,0,.089.191,4.539,4.539,0,0,0,.819.475.2.2,0,0,0,.2-.025A2.826,2.826,0,0,1,406.97,409.924Z" transform="translate(-235.98 -222.876)" fill="#fff"/>
      <path id="路径_8111" data-name="路径 8111" d="M163.921,185.849h-4.047a.95.95,0,0,1-.941-.954V172.917a.948.948,0,0,1,.941-.954h16.119a.95.95,0,0,1,.941.954v5.989a.651.651,0,1,1-1.3,0v-5.631h-15.4V184.54h3.686a.654.654,0,0,1,0,1.309Zm1.71,3.09h-4.06a.656.656,0,0,1,0-1.311h4.063a.656.656,0,0,1,0,1.311Z" transform="translate(0 0)" fill="#fff"/>
    </g>
  </g>
</svg>
