<!-- 菜单图标：系统设置 -->
<svg xmlns="http://www.w3.org/2000/svg" width="18" height="18" viewBox="0 0 18 18">
  <g id="组_2" data-name="组 2" transform="translate(-36 -94)">
    <rect id="矩形_17" data-name="矩形 17" width="18" height="18" transform="translate(36 94)" fill="none"/>
    <path id="路径_8054" data-name="路径 8054" d="M87.856,88.295a2.79,2.79,0,0,1,2.793,2.783v2.364a.421.421,0,0,1-.42.419H87.886a2.783,2.783,0,1,1-.029-5.565m0-1.357A4.147,4.147,0,0,0,83.7,91.071a4.19,4.19,0,0,0,4.19,4.148h3.7a.421.421,0,0,0,.42-.419V91.078A4.147,4.147,0,0,0,87.856,86.938Zm9.689,1.219a2.783,2.783,0,1,1-.032,5.565H95.173a.421.421,0,0,1-.42-.419V90.939a2.79,2.79,0,0,1,2.793-2.783m0-1.357a4.147,4.147,0,0,0-4.154,4.139V94.66a.421.421,0,0,0,.42.419h3.7a4.14,4.14,0,1,0,.036-8.279Zm0,11.078a2.783,2.783,0,1,1-2.791,2.783V98.3a.421.421,0,0,1,.42-.419h2.37m0-1.357H93.81a.421.421,0,0,0-.42.419v3.685a4.156,4.156,0,1,0,4.156-4.1Zm-9.691,1.357h2.372a.421.421,0,0,1,.42.419v2.364a2.792,2.792,0,1,1-2.793-2.783m0-1.357a4.139,4.139,0,1,0-.006,8.279,4.19,4.19,0,0,0,4.163-4.175V96.94a.421.421,0,0,0-.42-.419Z" transform="translate(-47.7 7.2)" fill="#fff"/>
  </g>
</svg>
