<!-- 菜单图标：任务管理 -->
<svg xmlns="http://www.w3.org/2000/svg" width="18" height="18" viewBox="0 0 18 18">
  <g id="组_2" data-name="组 2" transform="translate(-36 -94)">
    <rect id="矩形_17" data-name="矩形 17" width="18" height="18" transform="translate(36 94)" fill="none"/>
    <path id="路径_8098" data-name="路径 8098" d="M16.453,1.1H3.6A2.571,2.571,0,0,0,1.024,3.674V16.53A2.571,2.571,0,0,0,3.6,19.1H16.452a2.573,2.573,0,0,0,2.572-2.572V3.675A2.573,2.573,0,0,0,16.452,1.1h0Zm1.288,15.432a1.281,1.281,0,0,1-1.279,1.284H3.6A1.289,1.289,0,0,1,2.31,16.534V3.675A1.289,1.289,0,0,1,3.6,2.387H16.454a1.287,1.287,0,0,1,1.287,1.287V16.534ZM15.654,6.887H10.51a.643.643,0,0,0,0,1.286h5.143a.643.643,0,1,0,0-1.286Zm0,5.146H10.51a.642.642,0,0,0,0,1.284h5.143a.642.642,0,1,0,0-1.284Zm-9-1.607a2.251,2.251,0,1,0,2.172,2.251,2.251,2.251,0,0,0-2.172-2.251h0Zm.682,2.933a.965.965,0,1,1,0-1.365.965.965,0,0,1,0,1.365Zm.792-7.567L6.01,7.909l-.833-.83a.642.642,0,1,0-.908.908L5.555,9.273a.642.642,0,0,0,.908,0L9.035,6.7a.643.643,0,1,0-.908-.909Z" transform="translate(34.976 92.897)" fill="#fff"/>
  </g>
</svg>
