<svg id="组_918" data-name="组 918" xmlns="http://www.w3.org/2000/svg" width="19.917" height="24.947" viewBox="0 0 19.917 24.947">
  <g id="椭圆_1" data-name="椭圆 1" transform="translate(3.621 0)" fill="#fff" stroke="#545454" stroke-width="1.5">
    <ellipse cx="6.337" cy="6.337" rx="6.337" ry="6.337" stroke="none"/>
    <ellipse cx="6.337" cy="6.337" rx="5.587" ry="5.587" fill="none"/>
  </g>
  <g id="路径_433" data-name="路径 433" transform="translate(0 10.864)" fill="#fff">
    <path d="M 9.958417892456055 13.33331203460693 C 7.47233772277832 13.33331203460693 5.071367740631104 12.97428226470947 3.371137857437134 12.34828186035156 C 2.175387859344482 11.90801239013672 0.7499979138374329 11.13601207733154 0.7499979138374329 9.958412170410156 C 0.7499979138374329 4.880882263183594 4.88087797164917 0.7500022053718567 9.958417892456055 0.7500022053718567 C 15.0359582901001 0.7500022053718567 19.16683769226074 4.880882263183594 19.16683769226074 9.958412170410156 C 19.16683769226074 11.13601207733154 17.74144744873047 11.90801239013672 16.54569816589355 12.34828186035156 C 14.84546756744385 12.97428226470947 12.44449806213379 13.33331203460693 9.958417892456055 13.33331203460693 Z" stroke="none"/>
    <path d="M 9.958417892456055 1.500001907348633 C 5.294427871704102 1.500001907348633 1.499998092651367 5.294432640075684 1.499998092651367 9.958412170410156 C 1.499998092651367 10.52303218841553 2.296367645263672 11.1533317565918 3.630277633666992 11.64446258544922 C 5.250778198242188 12.24111175537109 7.557297706604004 12.58331203460693 9.958417892456055 12.58331203460693 C 12.35953807830811 12.58331203460693 14.66605758666992 12.24111175537109 16.28655815124512 11.64446258544922 C 17.62046813964844 11.1533317565918 18.41683769226074 10.52303218841553 18.41683769226074 9.958412170410156 C 18.41683769226074 5.294432640075684 14.62240791320801 1.500001907348633 9.958417892456055 1.500001907348633 M 9.958417892456055 1.9073486328125e-06 C 15.45829772949219 1.9073486328125e-06 19.91683769226074 4.458532333374023 19.91683769226074 9.958412170410156 C 19.91683769226074 12.70834732055664 14.9376277923584 14.08331489562988 9.958417892456055 14.08331489562988 C 4.979207992553711 14.08331489562988 -1.9073486328125e-06 12.70834732055664 -1.9073486328125e-06 9.958412170410156 C -1.9073486328125e-06 4.458532333374023 4.458538055419922 1.9073486328125e-06 9.958417892456055 1.9073486328125e-06 Z" stroke="none" fill="#545454"/>
  </g>
</svg>
