<!-- 机房位置管理-机房可视化-查看 -->
<svg xmlns="http://www.w3.org/2000/svg" width="14" height="14" viewBox="0 0 14 14">
  <path id="路径_8518" data-name="路径 8518" d="M24.245,11.324a.875.875,0,0,0-.875.875v3.063a.875.875,0,0,0,.875.875h3.063a.875.875,0,0,0,.875-.875V12.2a.875.875,0,0,0-.875-.875H24.246Zm0-.875h3.063a1.75,1.75,0,0,1,1.75,1.75v3.063a1.75,1.75,0,0,1-1.75,1.75H24.246a1.75,1.75,0,0,1-1.75-1.75V12.2a1.75,1.75,0,0,1,1.75-1.75Zm-7.437.875a.875.875,0,0,0-.875.875v3.063a.875.875,0,0,0,.875.875h3.063a.875.875,0,0,0,.875-.875V12.2a.875.875,0,0,0-.875-.875Zm0-.875h3.063a1.75,1.75,0,0,1,1.75,1.75v3.063a1.75,1.75,0,0,1-1.75,1.75H16.808a1.75,1.75,0,0,1-1.75-1.75V12.2a1.75,1.75,0,0,1,1.75-1.75Zm7.437-6.562a.875.875,0,0,0-.875.875V7.824a.875.875,0,0,0,.875.875h3.063a.875.875,0,0,0,.875-.875V4.762a.875.875,0,0,0-.875-.875H24.246Zm0-.875h3.063a1.75,1.75,0,0,1,1.75,1.75V7.824a1.75,1.75,0,0,1-1.75,1.75H24.246a1.75,1.75,0,0,1-1.75-1.75V4.762a1.75,1.75,0,0,1,1.75-1.75Zm-7.437.875a.875.875,0,0,0-.875.875V7.824a.875.875,0,0,0,.875.875h3.063a.875.875,0,0,0,.875-.875V4.762a.875.875,0,0,0-.875-.875Zm0-.875h3.063a1.75,1.75,0,0,1,1.75,1.75V7.824a1.75,1.75,0,0,1-1.75,1.75H16.808a1.75,1.75,0,0,1-1.75-1.75V4.762a1.75,1.75,0,0,1,1.75-1.75Z" transform="translate(-15.058 -3.012)" fill="#606266"/>
</svg>
