<!-- 机房位置管理-机房可视化-编辑 -->
<svg xmlns="http://www.w3.org/2000/svg" width="14" height="14" viewBox="0 0 14 14">
  <path id="路径_8517" data-name="路径 8517" d="M125.91,150.152a.59.59,0,0,1,0-1.169h12.979a.59.59,0,0,1,0,1.169ZM136.6,136.423l1.307,1.319a.941.941,0,0,1,0,1.319l-8.288,8.332a.923.923,0,0,1-.658.271h-1.724a.466.466,0,0,1-.464-.468V145.41a.939.939,0,0,1,.269-.664l8.251-8.323A.921.921,0,0,1,136.6,136.423Zm-8.668,9.08v.991h.983l8.019-8.089-.983-1Z" transform="translate(-125.4 -136.152)" fill="#303133"/>
</svg>
