<!-- 设备类型：波分设备 -->
<svg xmlns="http://www.w3.org/2000/svg" width="28" height="32" viewBox="0 0 28 32">
  <path id="路径_8482" data-name="路径 8482" d="M81.181,13.024a1.527,1.527,0,0,1-.808,1.5,4.544,4.544,0,0,1-2.07.414H75.779v-6.4H78.4A3.072,3.072,0,0,1,80.3,9.02a1.432,1.432,0,0,1,.631,1.158,1.15,1.15,0,0,1-.429.992,2.51,2.51,0,0,1-.883.431,2.614,2.614,0,0,1,1.086.465A1.141,1.141,0,0,1,81.181,13.024Zm-1.413-2.846a.768.768,0,0,0-.379-.71,1.808,1.808,0,0,0-.935-.224H76.94v1.984H78.4a1.821,1.821,0,0,0,.958-.243A.868.868,0,0,0,79.768,10.178Zm.2,2.846a.852.852,0,0,0-.53-.841,2.776,2.776,0,0,0-1.187-.245H76.94v2.285H78.1a2.985,2.985,0,0,0,1.389-.262A.97.97,0,0,0,79.968,13.024ZM89.846,2.133V29.867H66.154V2.133H89.846m0-2.133H66.154A2.144,2.144,0,0,0,64,2.133V29.867A2.144,2.144,0,0,0,66.154,32H89.846A2.144,2.144,0,0,0,92,29.867V2.133A2.144,2.144,0,0,0,89.846,0Zm0,21.333H66.154v2.133H89.846ZM87.692,25.6H85.538v2.133h2.154Z" transform="translate(-64)" fill="#303133"/>
</svg>
